<svg width="70" height="70" viewBox="0 0 70 70" fill="none" xmlns="http://www.w3.org/2000/svg">
<path d="M62.6343 18.4186C61.1845 19.12 60.5778 20.8646 61.2792 22.3136C63.1954 26.2721 64.1667 30.5388 64.1667 35C64.1667 51.0823 51.0823 64.1667 35 64.1667C18.9177 64.1667 5.83333 51.0823 5.83333 35C5.83333 18.9177 18.9177 5.83333 35 5.83333C41.6643 5.83333 47.9249 8.00944 53.1067 12.126C54.3635 13.1293 56.2014 12.9192 57.2047 11.6581C58.208 10.3977 57.9979 8.56201 56.7361 7.56012C50.6016 2.68453 42.882 0 35 0C15.702 0 0 15.702 0 35C0 54.298 15.702 70 35 70C54.298 70 70 54.298 70 35C70 29.6523 68.8322 24.5275 66.5293 19.7737C65.8294 18.321 64.0791 17.7158 62.6343 18.4186Z" fill="#21435B"/>
<path d="M34.9994 11.6667C33.3894 11.6667 32.0828 12.9733 32.0828 14.5834V35C32.0828 36.61 33.3894 37.9167 34.9994 37.9167H49.5828C51.1928 37.9167 52.4994 36.61 52.4994 35C52.4994 33.39 51.1928 32.0834 49.5828 32.0834H37.9161V14.5834C37.9161 12.9733 36.6094 11.6667 34.9994 11.6667Z" fill="#21435B"/>
</svg>
