<svg width="373" height="35" viewBox="0 0 373 35" fill="none" xmlns="http://www.w3.org/2000/svg">
<g clip-path="url(#clip0)">
<path d="M6.71997 29.58C7.98996 29.12 9.70996 29.39 10.96 28.92C11.41 29.23 12.38 28.97 12.94 28.89C12.57 29.48 11.21 29.66 9.90997 29.54C9.55997 29.87 8.93997 30.05 8.88998 30.54C9.31 30.83 10.07 30.53 10.57 30.66C10.56 30.68 10.53 30.72 10.49 30.75C10.06 30.85 9.43997 30.88 9.43997 31.22C9.43997 31.25 9.44998 31.27 9.44998 31.29C9.85999 31.51 11.27 31.53 11.17 31.04C10.95 31.01 11.04 30.8 10.63 30.9L10.63 30.81L10.57 30.82C10.65 30.75 10.7 30.68 10.73 30.63L10.75 30.66C13.52 30.9 16.16 30.93 19.13 30.62C19.35 30.29 19.88 30.44 20.31 30.39C21.8 30.16 22.89 29.77 23.58 29.05C24.38 28.95 25.3 29.3 25.71 28.95C26.48 29.12 27 28.92 27.56 28.78C27.62 28.54 27.32 28.52 27.41 28.25C27.02 28.27 26.99 28.08 26.61 28.11C27.09 27.49 28.8 27.52 29.21 26.86C29.63 26.91 29.6 26.72 30.01 26.78C30.15 26.79 30.1 26.93 30.27 26.93C30.07 27.2 29.36 27.22 29.37 27.62C29.55 27.72 30 27.66 30.19 27.76C29.75 28.15 28.67 28.18 28.48 28.69C29.6 28.86 31.74 28.37 32.88 28.63C33.46 28.48 34.35 28.49 34.45 28.08C33.64 28.09 33.71 27.58 33.09 27.49C33.18 27.41 33.4 27.41 33.34 27.26C32.56 26.76 33.05 25.75 33.27 25.22C34.34 25.3 35.3 25 36.06 25.41C36.48 25.33 36.73 25.15 36.99 25.17C37.18 25.29 37.28 25.46 37.53 25.53C37.99 25.55 37.86 25.23 38.32 25.23C38 24.38 37.03 24.66 35.77 24.81C35.49 24.8 35.48 24.62 35.49 24.43C35.22 24.63 34.87 24.79 34.31 24.83C34.21 24.67 34.89 24.3 35.63 24.35C35.62 24.25 35.62 24.16 35.62 24.05C35.21 24.12 35.12 23.98 34.82 23.98C34.77 23.73 34.58 23.56 34.65 23.23C34.44 23.25 34.41 23.16 34.24 23.16L34.21 23.17C34.22 23.13 34.24 23.09 34.24 23.06C34.25 23.05 34.24 23.03 34.23 23.01C34.32 22.91 34.37 22.73 34.37 22.58L34.37 22.51L35.9 22.51C35.93 22.63 35.94 22.76 35.96 22.91C36.5099 22.89 36.74 22.69 37.01 22.51L40.4 22.51C40.43 22.54 40.45 22.57 40.48 22.6C40.49 22.71 40.4 22.75 40.36 22.83C40.32 22.85 40.28 22.86 40.24 22.87L40.22 22.87L40.21 22.85C40.1 22.9 39.98 22.95 39.95 22.86C39.7 23 40.2 23.29 40.34 22.95C40.39 22.94 40.44 22.92 40.48 22.91L40.48 22.92C40.63 22.94 40.57 23 40.49 23C40.71 23.21 41.09 22.88 41.56 22.98C41.74 22.78 41.63 22.59 41.32 22.51L42.27 22.51C42.27 22.55 42.29 22.61 42.34 22.67C42.87 22.84 43.35 22.61 43.81 22.73C43.87 23.15 42.88 23.52 43.58 23.64C43.57 23.79 43.13 23.7 43.05 23.8L43.05 23.84C42.96 23.82 42.86 23.81 42.77 23.8C42.68 23.79 42.59 23.81 42.58 23.86C42.55 23.91 42.6 23.95 42.69 23.96C42.71 23.97 42.74 23.97 42.76 23.98C42.47 24.17 43.13 24.09 43.47 24.09C43.43 24.45 43.31 24.53 43.49 24.86C44.13 24.77 44.4 24.86 44.8 24.62C44.99 24.63 45.18 24.65 45.35 24.67C45.52 24.86 45.93 24.81 46.14 24.67L46.13 24.64C46.22 24.66 46.3 24.67 46.38 24.67C46.54 24.67 46.62 24.67 46.7 24.72C46.74 24.73 46.78 24.74 46.82 24.74C46.85 24.74 46.89 24.73 46.92 24.72C46.97 24.68 46.97 24.63 46.92 24.59C46.75 24.5 46.55 24.5 46.4 24.5C46.35 24.5 46.3 24.5 46.25 24.49C46.2 24.44 46.13 24.38 46 24.37L46 24.29C46.38 24.05 47.46 24.09 47.33 24.43C47.66 24.43 47.49 24.36 47.46 24.27C48.3 24.28 48.32 24.79 49.2 24.77C49.6 24.78 49.27 25.23 49.71 25.23C49.72 25.24 49.73 25.26 49.73 25.27C49.73 25.31 49.81 25.35 49.9 25.35L49.91 25.35C50 25.35 50.06 25.31 50.05 25.24C50.04 25.18 49.98 25.12 49.92 25.07L50.01 25.07C50.16 25.05 50.1 24.91 50.28 24.91C50.57 24.97 50.34 25.34 50.43 25.52C50.75 25.51 51.05 25.51 51.36 25.5C51.42 25.35 51.17 25.36 50.95 25.36C51.05 25.1 51.67 25.35 51.99 25.12C52.11 25.13 52.24 25.14 52.36 25.14C52.58 25.13 52.8 25.11 53 25C53.08 24.96 53.09 24.89 53.02 24.83C52.94 24.79 52.82 24.78 52.73 24.82C52.55 24.92 52.36 24.91 52.03 24.89L51.86 24.89C51.85 24.68 52.06 24.74 51.86 24.59C52.48 24.55 51.97 24.36 52.37 24.21C52.67 24.23 52.93 24.27 53.03 24.42L53.04 24.53C53.04 24.58 53.11 24.62 53.18 24.62C53.2599 24.62 53.32 24.58 53.32 24.53L53.32 24.38C53.32 24.37 53.31 24.36 53.3 24.35L53.31 24.35C53.53 24.36 53.54 24.27 53.7 24.27C53.65 23.99 53.7 23.77 53.81 23.58L53.76 23.59C53.79 23.52 53.82 23.46 53.91 23.4C53.94 23.37 53.93 23.32 53.88 23.3C53.82 23.27 53.73 23.29 53.69 23.31C53.6 23.38 53.55 23.45 53.51 23.52C53.22 23.67 52.36 23.75 52.46 23.3C52.0399 23.36 51.9 23.58 51.55 23.69C50.84 23.58 50.63 23.66 50.21 23.4L50.13 23.42C50.15 23.39 50.17 23.37 50.19 23.34C50.21 23.32 50.23 23.29 50.25 23.26C51.53 23.51 52.32 23.06 52.7 22.62C52.63 22.9 53.45 22.42 53.91 22.75C53.81 22.83 53.77 22.92 53.78 23.05C54.79 22.99 55.17 22.98 55.78 22.8C56.27 22.86 55.45 23.28 56.05 23.17L56.11 23.18C56.05 23.23 55.99 23.29 55.94 23.34L55.93 23.33C55.31 23.31 55.08 23.5 54.6 23.35C54.53 23.95 55.18 24.23 54.66 24.93C54.82 24.92 54.9 24.95 54.94 25.01C55.27 24.87 55.28 24.55 55.71 24.46C55.73 24.61 56.39 24.7 56.4 25.06C57.48 24.92 57.54 25.38 58.22 25.48C58.34 25.53 58.47 25.55 58.57 25.57L58.63 25.57C58.65 25.57 58.67 25.59 58.69 25.59C58.74 25.59 58.79 25.56 58.81 25.53C58.82 25.49 58.79 25.45 58.72 25.42L58.65 25.42C58.55 25.4 58.44 25.38 58.36 25.35L58.4 25.34C58.75 25.28 58.64 24.98 58.91 24.87L58.89 24.86C59.06 24.8 59.2 24.74 59.28 24.65L59.28 24.64L59.31 24.65C60.21 24.54 60.21 24.99 61.05 24.92C60.95 25.2 60.37 25.24 60.55 25.68C62.29 25.72 63.83 25.81 63.96 24.81C63.71 24.63 63.4 24.91 63.04 24.75C62.99 24.35 64.17 24.61 64.49 24.42C64.74 24.45 64.27 24.64 64.9 24.57C64.9 24.75 64.91 24.92 64.92 25.1C65.69 25.31 66.74 25.41 67.32 25.44C67.25 25.5 67.19 25.56 67.19 25.67C67.43 25.6 67.52 25.45 67.99 25.5C67.88 25.67 67.61 25.74 67.2 25.74C67.21 25.97 67.82 25.83 68 25.97C68.07 26.8 66.3 26.19 66.05 26.82C66.12 27.19 66.66 27.28 67.27 27.33C67.51 26.85 68.64 27.1 68.99 27.39C69.68 27.31 69.64 26.85 70.71 26.99L70.74 26.98C70.73 27.01 70.71 27.05 70.71 27.08C70.69 27.14 70.68 27.18 70.64 27.21C69.81 27.23 70.21 27.59 70.48 27.81C70.88 27.81 70.86 27.58 70.86 27.36L70.79 27.35C70.92 27.27 70.95 27.18 70.97 27.1C70.98 27.08 70.99 27.06 71 27.04C71.16 26.95 71.48 26.95 71.49 26.77C71.64 26.76 71.79 26.76 71.95 26.79L72 26.79C72.05 26.79 72.12 26.78 72.13 26.74C72.15 26.7 72.12 26.65 72.04 26.63C71.8 26.59 71.58 26.59 71.34 26.62L71.35 26.59C70.93 26.63 70.83 26.49 70.55 26.45C70.49 26.27 70.78 26.29 70.67 26.07C70.47 25.96 70.11 25.94 70 25.78C69.89 25.9 69.34 25.78 69.48 26.02C68.92 26.01 68.9 25.68 68.65 25.5C68.93 25.2 70.19 25.45 70.5 25.17C70.42 24.82 70.86 24.51 70.07 24.5C70.35 24.15 70.2 24.29 70.86 24.11C70.75 23.94 70.33 23.77 70.95 23.73L70.97 23.74C70.98 23.94 70.93 24.17 71.25 24.18C71.24 24.34 70.92 24.34 70.6 24.34C70.68 24.4 70.77 24.46 70.61 24.49C70.7 24.77 71.04 24.91 71.69 24.85C71.59 25.07 71.5 24.94 71.15 24.94C71.06 25.17 71.52 25.07 71.45 25.3C72.05 25.17 72.51 25.49 73.16 25.21C73.17 25.28 73.17 25.36 73.17 25.44L73.22 25.45L73.21 25.46C73.06 25.65 72.88 25.88 72.95 26.12L72.93 26.11C72.88 26.33 72.94 26.8 72.57 27.03C72.63 27.57 74.12 27.25 74.45 27.61C75.01 27.5 75.83 27.67 76.46 27.73C76.44 27.65 76.48 27.6 76.59 27.58C76.46 26.99 74.56 27.13 75.08 26.39C74.16 26.69 74.01 26.08 73.26 26.04C73.24 25.89 73.35 25.72 73.47 25.57C73.78 25.4 73.86 25.11 74.35 25.05C74.81 25.1 74.33 25.35 74.64 25.57C74.83 25.53 74.96 25.45 75.02 25.34C75.48 25.45 76.07 25.5 76.12 25.85C75.87 26.02 75.35 26.03 75.47 26.39C76.25 26.75 77.09 26.3 77.85 26.21C78.27 26.19 78.25 26.45 78.79 26.34C78.96 26.14 79.1 25.92 79.02 25.59C79.75 25.48 79.64 25.9 79.97 26.03C80.82 25.84 81.82 26.15 82.22 25.69C82.65 25.62 82.42 25.93 82.64 26C83.02 26.03 83.37 25.74 83.3 26.14C84.21 25.96 85.01 26.63 86.23 26.25C86.27 26 85.99 25.93 85.81 25.8C85.98 25.6 86.39 25.52 86.32 25.19C86.11 25.19 85.81 25.24 85.78 25.12C85.59 25.48 85.19 25.73 84.21 25.67C84.74 25.31 84.15 25.01 84.31 24.76L84.28 24.77C84.34 24.7 84.45 24.66 84.63 24.61C84.8 24.57 85.01 24.52 85.1 24.38C85.44 24.48 85.78 24.23 86.04 24.05C86.1 24.01 86.26 23.99 86.41 23.97L86.4 23.98C86.89 23.91 87.12 24.1 87.33 23.97C87.34 24.29 87.23 24.55 86.82 24.65C86.98 24.82 87.66 24.67 88.03 24.71C88.24 24.72 87.84 25.06 88.41 25.01C88.39 25.04 88.37 25.07 88.33 25.11L88.33 25.14C88.22 25.21 88.13 25.34 88.32 25.32C88.81 25.31 88.7 25.17 88.46 25.09C88.5 25.04 88.53 24.99 88.54 24.96L88.58 25.01C88.84 24.96 88.99 24.85 89.22 24.77C89.31 24.57 88.96 24.63 88.94 24.48C88.96 24.31 89.27 24.31 89.6 24.31L89.6 24.3C89.7 24.32 89.76 24.36 89.86 24.47C89.91 24.52 89.96 24.57 90.03 24.62C90.21 25.09 91.09 25.42 91.76 25.12L91.75 25.1C91.81 25.11 91.87 25.12 91.91 25.12C91.92 25.13 91.92 25.14 91.92 25.14C91.95 25.16 91.96 25.17 91.99 25.19C92.01 25.22 92.06 25.23 92.1 25.23C92.13 25.23 92.15 25.22 92.18 25.21C92.24 25.19 92.25 25.15 92.21 25.1C92.19 25.09 92.18 25.09 92.16 25.06C92.15 25.05 92.13 25.03 92.1 25.01L92.07 24.99L92.04 24.98C92 24.98 91.95 24.97 91.89 24.96C92.35 24.33 90.97 24.04 90.29 24.44C90.26 24.42 90.23 24.39 90.2 24.36C90.1 24.26 89.98 24.13 89.73 24.09C89.74 24.06 89.74 24.03 89.74 24C89.74 23.79 89.55 23.7 89.44 23.56C89.91 23.35 90.73 23.32 91.01 23.02C91.2 23.16 91.39 23.3 91.95 23.23C92.15 22.97 92.35 22.72 92.62 22.5L94.27 22.5C94.3 22.58 94.36 22.66 94.46 22.74C95.12 22.57 96.16 22.65 96.47 22.94C96.69 22.8 96.82 22.65 96.93 22.5L98.65 22.5L98.65 22.59L98.79 22.66L98.71 22.68C98.71 22.75 98.88 22.74 98.98 22.75L98.98 22.74L99.12 22.78C99.2 22.92 99.57 22.89 99.52 23.13C100.03 23.17 99.8 22.84 100.17 22.82L100.16 22.8L100.34 22.83C100.98 23.33 100.03 23.85 101.29 24.08C101.58 23.97 101.49 23.65 101.94 23.61C101.89 23.44 101.72 23.34 101.78 23.09C102.75 23.23 102.86 23.01 103.64 22.99C103.59 22.83 103.51 22.65 103.27 22.5L103.72 22.5C103.64 22.61 103.75 22.74 103.78 22.98L104.31 22.98C104.47 23.31 104.31 23.29 104.2 23.59C104.47 23.55 104.45 23.68 104.47 23.79C104.46 23.8 104.45 23.81 104.44 23.81C104.4 23.82 104.36 23.83 104.34 23.85L104.27 23.86L104.34 23.93C104.35 23.96 104.38 23.97 104.41 23.97L104.45 23.97C104.49 23.95 104.51 23.93 104.49 23.9L104.53 23.9C104.56 23.89 104.59 23.87 104.61 23.86L104.62 23.88C104.72 23.89 104.73 23.84 104.74 23.8C105.06 23.87 104.97 24.17 105.42 24.17C105.77 23.81 106.94 24.02 107.29 24.44C107.79 24.42 107.93 24.19 108.35 24.12C107.94 23.97 107.42 23.76 107.65 23.46C108.02 23.39 108.01 23.56 108.32 23.52C108.44 23.37 108.58 23.22 108.7 23.06C109.12 23 109.86 23.15 109.9 23.05L109.9 23.04C109.94 23.04 109.98 23.05 110.03 23.05C110.41 23.37 111.52 23.03 111.78 23.56C111.93 23.3 112.33 23.56 112.71 23.62C112.51 23.84 112.11 23.52 111.65 23.63C111.66 23.86 111.9 23.95 112.19 24C112.18 24.13 111.84 24.08 111.8 24.2C111.61 24.24 111.43 24.25 111.27 24.24C111.2 23.97 110.3 24.2 110.45 23.8C110.25 23.96 109.8 23.98 109.26 23.97C109.21 24.5 110.75 24.45 111.15 24.47L111.14 24.45C111.23 24.46 111.31 24.46 111.41 24.46C111.58 24.46 111.76 24.44 111.94 24.4C111.96 24.69 112.73 24.54 112.76 24.82C113.23 24.79 113.23 24.62 113.69 24.74C113.58 24.51 113.91 24.51 113.8 24.28C113.98 24.41 114.54 24.3 114.72 24.42C114.57 24.55 114.45 24.66 114.19 24.71L114.1 24.74L114.1 24.8C114.1 24.81 114.1 24.85 114.12 24.89C114.13 24.92 114.15 24.96 114.15 24.99C114.15 25.04 114.21 25.08 114.3 25.08C114.37 25.07 114.44 25.04 114.44 24.99C114.44 24.95 114.43 24.89 114.41 24.85C114.68 24.76 114.82 24.64 114.97 24.51L115.01 24.48C115.62 24.45 116.07 24.72 116.47 24.55C117.2 24.69 116.5 25.66 117.7 25.51C117.59 25.25 117.84 25.19 117.95 25.05C119.14 25.29 119.41 24.12 120.43 24.26C120.42 24.28 120.41 24.31 120.4 24.34C120.39 24.43 120.38 24.5 120.29 24.55C120.24 24.58 120.24 24.63 120.3 24.66C120.33 24.67 120.37 24.69 120.4 24.69C120.43 24.69 120.47 24.67 120.49 24.66C120.64 24.57 120.67 24.45 120.68 24.36C120.69 24.32 120.69 24.28 120.71 24.26C120.83 24.25 120.95 24.24 121.04 24.24C122.14 24.24 121.76 24.95 122.48 25.06C123.11 24.92 123.4 24.58 124.31 24.58C124.77 24.92 124.9 25.3 124.63 25.71L124.64 25.73C124.57 25.75 124.5 25.78 124.47 25.83C124.4 25.9 124.39 25.98 124.43 26.04C124.45 26.06 124.49 26.08 124.54 26.08C124.55 26.08 124.57 26.08 124.58 26.07C124.64 26.06 124.67 26.02 124.64 25.99C124.63 25.97 124.64 25.92 124.67 25.89L124.7 25.86C125.39 25.85 125.42 26.23 126.24 26.15C126.64 25.94 126.64 25.53 126.86 25.23C126.6 24.87 125.38 25.08 125.12 24.72C125.57 24.43 127.18 24.7 127.5 24.46C127.88 24.47 127.75 24.78 128.18 24.75C128.11 24.5 128.56 24.53 128.69 24.37C129.81 24.5 130.6 24.13 131.74 24.18C131.98 24.29 131.93 24.58 132.17 24.71C132.65 24.47 132.93 24.46 133.76 24.53C134.07 24.43 134.05 24.14 134.53 24.14C134.81 24.26 134.91 24.49 134.96 24.74C135.13 24.64 135.71 24.63 135.89 24.73C135.75 24.91 135.93 24.94 135.64 25.11L135.66 25.12C135.54 25.14 135.41 25.16 135.3 25.16C135.19 25.17 135.11 25.22 135.14 25.27C135.15 25.33 135.23 25.37 135.32 25.37L135.34 25.37C135.48 25.35 135.64 25.33 135.79 25.31L135.8 25.31L135.79 25.33L136.18 25.33C136.64 24.61 137.88 24.33 138.91 23.93C139.24 24 139.28 24.24 139.33 24.45C139.91 24.6 140.92 24.44 141.47 24.87C141.98 24.59 142.71 24.8 142.82 25.16C143.81 25.1 143.38 24.29 144.52 24.31C144.83 24.59 145.29 24.77 145.87 24.9C146.17 24.91 146.01 24.68 146.26 24.66C146.31 24.42 145.92 24.46 145.71 24.37C145.69 24.18 145.92 24.13 145.97 23.98C146.78 24.2 147.29 23.82 147.54 23.51C148.15 23.73 148.57 24.08 149.04 24.4C149.45 24.22 150.3 24.31 150.61 23.92C150.88 23.89 151.03 23.93 151.02 24.07C152.51 23.79 154.18 24.2 155.67 23.7C156.05 23.83 156.3 24.05 156.48 24.3C157.14 24.3 157.05 24.41 157.69 24.51C157.62 24.28 157.94 24.08 157.66 23.75C157.89 23.43 158.7 23.43 158.83 23.06C159.22 23.28 159.93 23.32 160.17 23.65C160.53 23.63 160.45 23.4 160.83 23.41C160.85 23.09 160.61 23.05 160.81 22.8C161.37 22.86 161.57 23.13 161.76 23.4C162.66 23.3 162.82 23.59 163.5 23.45C163.26 23.69 163.54 23.77 163.39 24.05C163.69 23.95 163.85 23.55 164.19 23.89C164.68 23.84 164.91 23.65 164.96 23.35C165.4 23.34 165.45 23.57 165.63 23.72C166.03 23.73 166.04 23.54 166.43 23.56C166.42 23.35 166.35 23.13 166.54 23.03C166.86 23.34 167.51 23.55 167.25 24C167.7 23.85 167.95 23.6 168.41 23.45C168.26 23.12 168.45 23.05 168.12 22.86C168.26 22.85 168.39 22.85 168.53 22.85C168.65 22.9 168.43 23.29 168.82 23.38C169.33 23.12 169.64 23.52 170.15 23.51C170.02 23.27 170.57 23.4 170.67 23.28C170.59 23.03 170.39 22.87 170.38 22.6C170.8 22.66 171.1 23.02 171.17 22.52C171.84 22.54 171.05 22.74 171.05 22.82C171.05 23 171.59 23.2 171.34 23.57C171.86 23.63 171.81 23.38 172.13 23.34C171.84 23.06 172.03 22.78 172.78 22.87C172.75 22.61 172.65 22.65 172.74 22.46L173.02 22.46C173.11 22.52 173.13 22.63 173.17 22.72C173.52 22.74 173.55 22.59 173.63 22.46L173.8 22.46C174.05 22.57 174.47 22.56 174.74 22.46L175.01 22.46C175.25 22.61 175.47 22.76 175.96 22.76C176.2 23.35 174.97 23.16 174.53 23.38C174.9 23.77 176.21 23.29 176.53 23.81C176.98 23.61 177.46 23.91 177.86 23.71C177.88 23.52 177.65 23.48 177.59 23.33C177.23 23.34 176.8 23.39 176.77 23.2C176.97 22.9 177.73 22.93 177.59 22.46L179.59 22.46C179.77 22.63 179.82 22.83 179.7 23C180.21 23.03 180.47 22.93 180.76 22.84C180.77 22.67 180.74 22.54 180.62 22.46L181.66 22.46C181.81 22.54 181.92 22.64 181.94 22.75C182.27 22.67 182.23 22.71 182.74 22.65C182.81 22.6 182.85 22.54 182.87 22.46L183.88 22.46C184 22.49 184.15 22.51 184.29 22.5C184.4 22.5 184.5 22.49 184.6 22.47L184.59 22.49C185.35 22.56 185.85 22.43 186.6 22.6L186.57 22.57C186.62 22.57 186.67 22.58 186.71 22.59C186.81 22.6 186.92 22.61 187.04 22.63L187.05 22.63C187.08 22.63 187.09 22.62 187.11 22.62C187.12 22.63 187.13 22.65 187.13 22.67L187.17 22.68C187.09 22.72 187.06 22.78 187.03 22.83C187.01 22.85 187 22.87 186.98 22.88C186.75 22.79 186.6 22.66 186.33 22.6C186.2 22.66 186.43 22.95 186.08 23.06C185.44 22.86 184.3 22.93 184.77 23.46C185.03 23.58 184.94 23.44 185.3 23.45C185.48 23.64 185.24 23.69 185.44 23.74L185.54 23.72C185.45 23.82 185.42 23.92 185.44 24.02C185.44 24.03 185.48 24.05 185.52 24.05L185.53 24.05C185.59 24.05 185.61 24.03 185.61 24C185.59 23.94 185.61 23.87 185.65 23.8C186.42 23.7 186.93 23.45 187.14 23.04L187.12 23.03C187.21 22.99 187.25 22.93 187.29 22.87C187.3 22.86 187.3 22.85 187.31 22.84C187.49 22.95 187.67 23.05 187.82 23.19C188.24 23.22 188.16 22.92 188.48 23.1C188.25 23.18 188.28 23.38 187.82 23.33C188.07 23.5 188.41 23.6 189.03 23.55C189.03 23.45 189.03 23.34 189.01 23.25C189 23.25 188.99 23.26 188.98 23.26C188.93 23.28 188.89 23.3 188.85 23.32L188.87 23.27C188.86 23.25 188.86 23.22 188.86 23.2C189 23.15 189 23.02 189.26 23.04C189.26 23.07 189.27 23.09 189.27 23.12L189.29 23.12C189.33 23.11 189.37 23.09 189.41 23.07L189.41 23.09C189.52 23.06 189.65 23.02 189.67 22.93C190.25 23.08 190.41 23.71 191.16 23.52C190.73 23.28 191.09 23.06 191.12 22.69C191.76 22.77 191.45 23.34 191.3 23.6C191.41 23.82 191.93 23.83 192.11 24.03C191.9 24.31 191.9 23.86 191.58 23.97C191.9 24.14 191.7 24.17 191.73 24.49C192.11 24.55 192.44 24.64 192.79 24.7C192.91 24.3 193.25 23.97 192.63 23.72C192.97 23.52 193.6 23.46 193.67 23.1C193.49 22.93 193.08 22.89 193.11 22.59C193.14 22.5 193.35 22.53 193.36 22.45L193.57 22.45C193.92 22.5 193.95 22.75 193.92 23.03C194.31 22.99 194.3 23.28 194.47 23.32C194.61 23.36 194.57 23.17 194.6 23.17C195.15 23.19 194.85 23.48 195.28 23.69L195.34 23.68C195.23 23.76 195.16 23.84 195.12 23.93C194.97 23.99 194.79 24.01 194.5 24C194.47 24.12 194.62 24.13 194.64 24.23C194.15 24.31 194.25 24.04 193.83 24.08C193.69 24.24 193.42 24.51 193.73 24.69C194.51 24.4 194.64 24.9 195.34 24.9C195.53 24.64 196.05 24.13 195.29 23.99L195.25 23.99C195.28 23.9 195.34 23.82 195.44 23.74L195.43 23.76C195.82 23.75 195.99 23.88 196.1 24.05C196.24 23.87 196.65 23.69 196.21 23.59C196.71 23.61 196.97 23.76 197.29 23.88C197.37 24.3 196.79 24.34 196.8 24.72C197.16 24.65 197.14 24.82 197.45 24.79C197.53 24.54 197.74 24.64 197.85 24.56L197.85 24.55C197.91 24.56 197.97 24.57 198.03 24.59L198.14 24.62L198.12 24.63C198.45 24.9 198.59 25.27 199.21 25.37C199.26 25.21 199.58 24.84 199.73 24.98C200.02 24.9 199.34 24.76 199.44 24.54C199.55 24.32 199.87 24.58 200.11 24.53C199.9 24.81 200.2 24.64 200.26 24.9C200.75 24.69 201.27 24.98 201.47 25.34C201.91 24.95 202.37 24.61 202.23 24.21C202.09 23.83 201.11 23.55 201.38 23.08C202.14 23.08 202.25 23.48 202.74 23.66C203.42 23.6 203.52 23.61 204.32 23.57C204.57 23.58 204.63 23.7 204.6 23.87C205.18 23.89 204.91 23.44 205.65 23.55C205.76 23.3 205.43 23.32 205.37 23.18C205.74 23.11 205.72 23.28 206.04 23.24L206.14 23.22C206.09 23.28 206.06 23.34 206.04 23.4C205.46 23.44 206.09 23.68 205.79 23.85C205.1 23.75 205.64 24.82 204.36 24.63C204.32 24.75 204.48 24.76 204.64 24.78C205.36 24.98 205.42 25.49 206 25.58C205.61 24.65 207.12 24.99 207.56 24.73C207.86 24.82 207.93 25.02 208.24 25.1L208.25 25.36C208.25 25.37 208.25 25.39 208.26 25.4C208.1 25.45 208.03 25.51 208.03 25.57C208.03 25.75 208.68 25.93 209.07 25.92C209.18 25.86 209.14 25.72 209.32 25.68C209.24 25.5 208.75 25.53 208.66 25.33L208.64 25.06C208.64 25.05 208.63 25.03 208.63 25.02L208.64 25.02C209.04 24.9 208.95 24.31 208.6 24.19C208.5 24.26 208.25 24.24 208.21 24.35C207.95 24.28 207.84 24.02 208.05 23.89L208.02 23.87L208.12 23.84L208.15 23.81C208.17 23.75 208.19 23.7 208.22 23.64C208.24 23.59 208.26 23.54 208.28 23.49L208.31 23.51C208.55 23.5 208.59 23.61 208.84 23.58C208.74 23.36 208.74 23.43 208.83 23.21C209.49 23.36 209.49 23.89 209.81 24.24C210.31 24.23 210.31 23.93 210.72 23.85C211.27 23.99 211.61 24.26 212.21 24.36C212.33 24.02 212.27 24.23 212.59 24.06C212.75 23.65 212.06 23.74 212.15 23.38C212.69 23.27 213.2 23.81 214.03 23.58C214.05 23.44 213.86 23.43 213.88 23.28C214.32 23.28 214.64 23.52 214.82 23.27C215.25 23.37 215.03 24.06 215.26 24.47C215.76 24.59 215.76 24.98 216.12 25.16C216.12 25.25 216.17 25.33 216.21 25.4C216.26 25.49 216.29 25.55 216.28 25.61C216.27 25.67 216.33 25.71 216.42 25.72C216.43 25.72 216.43 25.72 216.45 25.72C216.52 25.72 216.59 25.68 216.6 25.63C216.62 25.53 216.56 25.43 216.51 25.34C216.46 25.26 216.42 25.19 216.45 25.11C216.45 25.1 216.45 25.08 216.44 25.07L216.49 25.05C216.98 24.99 217.12 25.14 217.55 25.12C217.5 24.97 217.56 24.89 217.81 24.89C217.42 24.41 216.53 24.12 216.56 23.62C216.23 23.61 216.16 23.74 215.9 23.78C215.9 23.68 215.89 23.58 215.89 23.48C216.42 23.54 216.87 23.72 217.08 23.38C217.64 23.44 217.86 23.7 218.17 23.91C218.15 24.16 217.85 24.26 217.94 24.58C218.87 24.98 219.9 24.93 220.63 25.38C220.91 25.3 221.26 25.06 221.01 24.91L221.13 24.91L221.14 24.92C221.12 24.98 221.2 24.98 221.27 24.98C221.3 24.99 221.34 25 221.38 25.02C221.4 24.97 221.33 24.96 221.26 24.95L221.24 24.95C221.3 24.78 221.74 24.95 221.79 25.02L221.8 25.02C221.8 25.04 221.79 25.06 221.79 25.09C221.7 25.1 221.61 25.1 221.52 25.1C221.5 25.08 221.47 25.07 221.44 25.06L221.42 25.06C220.75 25.26 222.12 25.49 222.24 25.73C222.78 25.62 222.69 25.09 222.22 24.98C222.7 24.88 223.14 24.78 223.72 24.78C223.87 24.78 224.02 24.78 224.19 24.8C224.65 24.43 223.9 24.23 223.64 24.05C223.6 23.86 224.26 23.64 223.48 23.68C223.68 23.44 223.61 23.06 224.12 22.98C224.56 23.18 225.22 23.26 225.73 23.42C225.64 23.57 225.33 23.48 225.61 23.65C225.2 23.71 224.72 23.41 224.93 23.36C224.58 23.15 224.31 23.61 224.43 23.9C225.24 24.08 225.29 24.23 226.3 24.24C226.31 24.5 225.7 24.41 225.52 24.56C225.57 24.74 225.62 24.91 226.06 24.85C226.06 24.95 226.06 25.05 226.08 25.15C226.03 25.26 225.74 25.23 225.54 25.23C225.63 25.47 225.95 25.56 226.1 25.76C226.48 25.34 227.8 25.57 228.49 25.65C228.46 25.45 228.7 25.49 228.47 25.34C229.04 25.44 229.68 25.51 230.74 25.31C230.65 25.15 230.45 24.87 230.71 24.72C231.32 24.93 230.55 25.01 230.86 25.39C231.51 25.6 232.08 25.86 232.37 26.28C232.51 26.19 232.99 26.17 233.22 26.24C233.24 26.25 233.26 26.27 233.28 26.28C232.97 26.47 233.46 26.5 233.45 26.72C233.67 26.71 233.89 26.71 234.11 26.71C234.25 26.38 234.08 26.4 233.96 26.11C233.85 26.12 233.82 26.19 233.69 26.19L233.67 26.2C233.62 26.16 233.57 26.12 233.5 26.08C233.48 26.06 233.45 26.05 233.42 26.05L233.43 26.04C233.41 25.99 233.41 25.94 233.41 25.89C233.58 25.71 234.69 26.07 234.87 25.65C235.11 25.86 235.06 26.25 235.43 26.4C235.83 26.44 235.91 26.3 236.21 26.3C236.32 26.32 236.42 26.34 236.52 26.37L236.49 26.38C236.47 26.45 236.55 26.45 236.62 26.45C236.57 26.57 236.46 26.43 236.23 26.46C236.23 26.58 236.24 26.7 236.24 26.84C235.92 26.84 235.85 26.72 235.44 26.77C235.29 26.87 235.39 26.89 235.46 26.99L235.47 27C235.29 27.06 235.12 27.1 234.98 27.21L234.95 27.23L234.94 27.33C234.94 27.4 235.01 27.45 235.13 27.46L235.14 27.46C235.24 27.46 235.33 27.41 235.33 27.34L235.34 27.32C235.41 27.28 235.49 27.25 235.61 27.22C236.65 27.28 236.69 27.91 237.63 28.03C237.94 27.86 238.5 27.82 239.08 27.78C239.08 27.83 239.08 27.87 239.09 27.91L239.07 27.94C238.9 28.04 238.89 28.23 238.69 28.32C238.65 28.6 239.31 28.7 239.63 28.52C239.69 28.28 239.39 28.27 239.48 28C239.6 27.97 239.71 27.95 239.82 27.95C240.38 27.95 240.74 28.39 240.98 28.66C241.4 28.73 241.38 28.54 241.62 28.51C241.98 28.61 241.81 28.87 242.32 29.02C243.53 28.49 245.03 29.03 246.45 29.34C246.57 29.75 246.27 29.94 246.08 30.18C245.76 30.22 245.32 29.92 245.68 29.81C245.56 29.78 245.13 29.72 244.87 29.81C244.85 29.74 244.9 29.68 245 29.67C244.94 29.5 244.34 29.65 244.07 29.6C243.85 29.88 243.7 29.83 243.7 30.13C244.19 30.16 244.48 30.6 244.9 30.41C245.09 30.79 244.51 30.74 244.53 31.03C245.02 31.01 244.91 30.94 245.31 31.02C245.33 31.09 245.32 31.19 245.22 31.25C245.22 31.25 245.22 31.25 245.21 31.25C245.08 31.23 244.96 31.22 244.85 31.22C244.1 31.22 243.78 31.71 242.83 31.73C242.37 31.67 242.6 31.19 241.88 31.29C242.12 31.72 241.31 31.8 241.38 32.28C241.08 32.28 240.76 32.29 240.46 32.3C240.48 32.43 240.31 32.45 240.33 32.6C241.02 32.89 241.92 33.05 242.87 32.79C243.26 32.85 243.15 33.19 243.68 33.15C244.18 32.97 244.1 32.73 244.19 32.47C244.69 32.48 245.07 32.56 245 32.91C245.55 32.98 245.77 33.23 246.09 33.42C245.86 33.64 245.12 33.58 244.78 33.75C245.17 34.2 246.17 33.99 247.17 33.94C247.24 33.59 246.82 33.54 246.36 33.49C246.89 33.47 247.02 33.17 246.73 32.89C247.1 32.4 248.34 32.72 249.11 32.55C248.82 32.14 249.47 31.96 250.14 31.86C250.13 31.68 250.37 31.63 250.26 31.41C250.89 31.59 251.27 31.46 252.12 31.54C252.36 31.23 252.84 30.86 253.43 30.99C253.53 30.5 254.1 30.27 254.59 29.98C255.61 30.44 257.89 30.58 258.98 30.01C260.15 30.05 260.9 29.51 261.8 29.78C261.83 29.81 261.86 29.86 261.87 29.91C261.89 29.97 261.93 30.05 262.01 30.11C262.03 30.12 262.07 30.14 262.11 30.14C262.14 30.14 262.15 30.13 262.17 30.12C262.23 30.11 262.24 30.06 262.2 30.04C262.15 29.98 262.13 29.94 262.1 29.88C262.08 29.83 262.05 29.78 262.02 29.73L262.56 29.73C262.51 29.55 262.38 29.41 262.28 29.27C262.88 28.97 263.27 28.25 264.33 28.42L264.49 28.5C264.51 28.51 264.54 28.52 264.58 28.51C264.6 28.51 264.62 28.51 264.65 28.5C264.7 28.48 264.7 28.42 264.65 28.4L264.42 28.28L264.49 28.27C265.22 27.92 264.94 27.36 265.64 27.04C265.98 26.89 266.56 26.95 266.42 26.66C267.72 26.71 267.25 26.08 267.44 25.66C267.78 25.62 268.2 25.92 268.38 25.71C268.65 25.88 268.94 26 268.93 26.32C269.39 26.32 269.57 26.49 269.79 26.63C269.82 26.67 269.83 26.71 269.81 26.76C269.54 26.73 269.44 26.63 269.22 26.76C269.07 27.08 269.51 27.06 269.5 27.29C268.98 27.03 267.8 27.48 266.72 27.55C266.87 27.72 266.96 27.93 267.13 28.08C268.09 28.07 268.45 28.18 269.15 28.42C269.74 28.38 270.65 28.12 270.99 28.18C270.97 27.73 270.03 27.39 270.02 26.83L269.93 26.85C270.01 26.76 269.99 26.68 269.96 26.61L270.01 26.61C270.79 26.41 271.78 26.57 272.15 26.87L272.15 26.9C272.15 26.94 272.16 26.98 272.18 27.03L272.15 27.02C272 27.04 272.07 27.1 272.15 27.1C272.03 27.23 271.59 27.19 271.37 27.26C271.43 27.72 271.21 27.57 271.12 27.95C271.31 27.94 271.5 27.93 271.53 28.02C271.81 27.95 271.98 27.83 271.91 27.56C272.07 27.64 272.17 27.62 272.16 27.48C273.37 27.57 274.13 27.91 274.47 28.51C275.26 28.64 276.21 28.33 276.48 28.86C275.62 29.07 275.38 28.7 274.34 28.73C274.17 28.83 274.23 29.07 274.23 29.26C273.28 29.35 272.9 29.08 272.23 28.99C271.96 29.14 271.87 29.39 271.18 29.31C271.24 29.7 271.86 29.87 272.67 29.89C273 29.91 272.86 29.71 273.32 29.66C273.7 29.61 274.41 29.83 275.2 29.86C275.82 29.88 276.41 29.78 276.91 29.77C277.56 29.74 277.81 29.84 278.25 29.59C278.07 28.89 276.26 28.2 277.76 27.79C277.63 27.53 276.77 27.72 276.69 27.43C276.93 26.84 278.75 26.41 279.46 26.93C279.49 27.12 279.27 27.17 279.07 27.24C279.67 27.84 280.5 27.87 280.6 28.81C280.45 29.07 279.56 28.93 279.42 29.2C279.7 29.69 280.73 29.35 281.15 29.11C282.33 29.37 283.87 29.45 284.64 29.96C285.16 29.89 284.92 29.71 285.29 29.57C285.53 29.49 286.03 29.6 286.35 29.56C287 29.45 287.72 29.09 288.59 29.08C288.84 29.07 289.04 29.19 289.39 29.22C290.43 29.3 291.71 28.96 292.57 29.02C293.05 29.06 293.67 29.15 294.44 29C294.49 29.18 295.02 29.06 294.99 29.3C295.83 28.57 298.21 28.6 299.75 28.78C300.68 28.54 302.61 28.36 303.34 28.95C303.58 29 304.13 28.86 304.14 29.02C304.39 29.01 303.97 28.78 304.13 28.57C304.35 28.15 305.5 28.24 306.12 28.39C306.39 28.18 307.08 28.18 307.43 28C307.66 28.05 307.86 28.02 308.1 28.07C308.25 28.09 308.13 28.18 308.24 28.22C308.51 28.31 309.02 28.24 309.17 28.28C309.38 28.33 309.3 28.45 309.44 28.5C309.6 28.56 310.28 28.35 310.12 28.65C310.75 28.36 311.1 27.92 312.42 28.01C312.43 28.04 312.44 28.07 312.44 28.09C311.92 28.15 311.76 28.19 311.29 28.17C311.62 28.44 312.19 28.58 312.65 28.76C312.8 28.62 313.16 28.59 313.29 28.45C313.19 28.29 312.83 28.26 312.62 28.16L312.57 28.16C312.63 28.1 312.61 28.02 312.52 27.92L312.61 27.93C312.91 27.67 313.1 27.86 313.55 27.92C314.68 28.09 316.09 27.97 316.86 27.87C316.58 27.61 317 27.58 317.24 27.41C317.89 28.08 319.33 27.74 320.3 27.44C320.78 27.53 321.15 27.7 321.78 27.5C322.63 27.97 323.88 27.52 325.1 27.54C325.77 27.06 327.4 27.47 328.42 27.64C330.09 27.17 331.81 27.08 333.46 27.42C334.31 26.83 335.94 27.58 336.92 27.15C337.87 27.76 339.65 27.07 340.52 27.72L340.53 27.71L340.5 27.82C340.52 27.85 340.53 27.87 340.54 27.9C340.22 27.9 340.26 28.1 339.97 28.12C339.97 28.42 340.83 28.59 340.4 28.88C341.34 29.19 342.79 29.31 343.6 28.9C343.35 28.7 343.14 28.46 342.65 28.39C342.66 28.3 342.89 28.33 343.04 28.31C343.1 28.2 342.52 28.13 342.9 28.09C342.61 28.03 341.57 27.96 340.77 27.97L340.67 27.99C340.72 27.91 340.68 27.84 340.66 27.79L340.63 27.77C340.63 27.76 340.62 27.76 340.61 27.75L340.63 27.74C341.72 27.86 342.18 27.81 343.02 27.94C343.42 27.54 343.27 27.28 343.65 26.94C343.33 26.85 343.09 26.7 343.09 26.42C342.73 26.6 342.18 26.43 342.15 26.16C342.19 26.15 342.23 26.15 342.27 26.14C342.32 26.14 342.37 26.13 342.42 26.13C342.46 26.28 342.91 26.2 342.97 26.35C343.28 26.3 343.24 26.06 343.34 25.89C342.91 25.68 342.89 26.14 342.81 25.82C342.59 25.8 342.56 25.88 342.54 25.98L342.57 26.02C342.45 26.01 342.33 26.01 342.23 26.03C342.18 26.03 342.14 26.04 342.09 26.04C341.79 25.92 341.72 25.68 341.34 25.62C341.43 25.33 341.79 25.61 342 25.45C341.94 25.31 341.61 25.33 341.71 25.08C340.73 25.02 340.14 24.72 339.69 24.35C339.71 24.27 339.94 24.3 339.94 24.19C340.47 24.17 340.75 24.28 341.02 24.41C341.16 24.34 341.01 24.24 341.27 24.11C341.13 23.76 340.44 23.52 340.88 23.17C340.63 23.25 340.59 22.92 340.42 22.83C340.45 22.74 340.68 22.77 340.68 22.67C341.39 23.1 342.27 22.96 343.23 23.17C342.86 23.51 343.67 23.35 343.52 23.77C342.85 23.81 342.82 23.45 342.44 23.33C342.02 23.37 342.19 23.74 341.52 23.65C341.78 23.85 341.83 24.18 342.34 24.24C342.37 24.41 341.87 24.28 341.68 24.33C341.74 24.55 342.27 24.49 342.37 24.69C342.23 24.69 342.09 24.7 341.96 24.7C341.8 24.65 341.62 24.62 341.45 24.61C341.29 24.58 341.15 24.57 341.02 24.54C340.96 24.51 340.88 24.52 340.84 24.56C340.82 24.6 340.84 24.64 340.89 24.66C341.06 24.7 341.23 24.73 341.4 24.74C341.58 24.76 341.75 24.78 341.89 24.84L341.83 24.85C341.92 24.92 342 24.98 341.83 25C342.73 24.94 343.65 24.9 343.85 25.42C343.94 25.39 344.05 25.35 344.21 25.34C344.22 25.35 344.23 25.35 344.24 25.35C344.37 25.38 344.51 25.41 344.65 25.41L344.65 25.42C344.74 25.47 344.94 25.47 345.02 25.52C345.01 25.58 344.98 25.63 344.96 25.65L344.92 25.64C344.84 25.72 344.63 25.72 344.66 25.87C344.83 25.88 344.79 26.01 344.82 26.1C345.3 25.95 345.22 26.32 345.88 26.38C345.91 26.74 346.12 26.99 346.54 27.11C346.53 27.11 346.53 27.12 346.53 27.12C346.41 27.19 346.3 27.24 346.18 27.28C345.76 27.13 345.76 27.31 346.19 27.36L346.15 27.34C346.3 27.3 346.44 27.23 346.59 27.16C346.6 27.15 346.62 27.14 346.63 27.14C347.16 27.22 347.53 27.14 348.09 27.12C348.32 27.33 348.64 27.47 348.94 27.58C348.93 27.66 348.99 27.75 349.08 27.84L349.01 27.85C349.06 28.03 349.48 27.99 349.41 28.23C350.03 28.19 351.07 28.09 350.72 27.6C350.4 27.69 349.64 27.4 349.21 27.66C349.19 27.62 349.19 27.58 349.2 27.57L349.22 27.52L349.15 27.49C348.8 27.37 348.44 27.22 348.23 26.97L348.31 26.95C348.54 26.99 348.86 26.99 348.97 27.1C349.31 26.34 346.87 26.2 346.01 26.16C346.01 26.09 346.01 26.02 346 25.96L346.09 25.9C346.14 25.88 346.14 25.83 346.09 25.81C346.03 25.77 345.96 25.78 345.91 25.81L345.75 25.9L345.73 25.86C345.93 25.56 345.16 25.84 345.19 25.65L345.18 25.65C345.19 25.62 345.21 25.58 345.22 25.54C345.22 25.52 345.2 25.5 345.18 25.49L345.18 25.48C345.54 25.48 345.95 25.51 346.11 25.4C346.71 25.54 347.01 25.84 347.73 25.91C347.23 25.64 348.14 25.44 348.09 24.99C347.6 24.89 347.89 24.76 347.28 24.78C347.61 24.64 347.37 24.65 347.54 24.47C348.41 24.73 349.29 24.38 349.8 24.66C349.74 24.84 349.59 24.58 349.41 24.74C349.3 25 349.9 25.22 349.57 25.35C349.58 25.56 349.92 25.16 349.85 25.5C350.08 25.2 351.05 25.4 351.31 25.56C351.76 25.34 351.92 25.42 352.37 25.54L352.45 25.53C352.32 25.67 352.24 25.82 352.23 25.98L351.99 25.98C352 25.91 351.94 25.87 351.85 25.85C351.44 25.87 351.07 25.9 350.83 26.01C350.77 26.01 350.71 26 350.62 25.98C350.5 25.95 350.36 25.93 350.22 25.94C350.11 25.92 350.14 25.8 350.11 25.72C349.64 25.72 349.39 25.86 348.92 25.66C348.68 25.72 348.9 25.8 348.93 25.89C348.91 25.89 348.88 25.89 348.86 25.88C348.74 25.88 348.59 25.86 348.46 25.92C348.41 25.95 348.41 25.99 348.45 26.02C348.47 26.03 348.5 26.03 348.54 26.03C348.56 26.03 348.58 26.03 348.6 26.02C348.65 25.99 348.7 25.99 348.82 26.01C348.89 26.02 348.98 26.02 349.07 26.01L349.06 26.04C349.41 26.17 349.77 26.3 350.27 26.33C350.26 26.25 350.26 26.18 350.26 26.1C350.34 26.09 350.42 26.11 350.51 26.12C350.6 26.14 350.7 26.16 350.82 26.16C350.86 26.16 350.9 26.15 350.95 26.15L350.94 26.17C351.19 26.34 351.76 26.32 351.86 26.23L351.86 26.22C351.95 26.22 352.03 26.23 352.1 26.23C352.15 26.22 352.2 26.22 352.25 26.21L352.27 26.23L352.25 26.23C352.61 26.53 353.26 26.23 353.99 26.35C354.02 26.49 353.84 26.51 353.88 26.66C353.06 26.57 352.32 26.76 351.74 26.68C351.67 26.84 351.57 27.17 351.76 27.34C351.76 27.27 352.62 27.4 351.91 27.43C352.56 27.71 352.8 27.13 353.5 27.19C353.74 27.41 354.16 27.52 354.58 27.63C354.88 27.53 355.18 27.41 355.77 27.45C355.92 27.47 355.85 27.53 355.77 27.54C356.32 27.66 357.39 27.57 357.66 28.19C358.19 28.08 358 28.46 358.32 28.26C358.37 28.45 357.82 28.32 357.94 28.57C357.56 28.56 357.37 28.29 357.02 28.5C357.15 28.72 357.62 29.18 356.9 29.25C357.33 29.77 358.35 30.1 359.19 29.76C358.89 29.52 359.12 29.43 358.91 29.23C359.59 29.01 359.28 28.72 359.94 28.39C359.47 28.31 359.49 28.21 358.85 28.1C358.73 27.77 358.8 27.76 358.69 27.5C358.87 27.33 359.85 27.34 359.48 27.11C360.16 27.17 360.93 27.38 361.33 27.01C362.55 27.11 363.12 27.94 364.55 27.64C364.69 27.79 365.05 27.81 365.22 27.94C365.19 27.96 365.16 27.99 365.12 28.02L365.1 28.01C364.83 27.88 364.77 28.01 364.44 28.02C364.49 28.18 364.35 28.22 364.31 28.33L364.31 28.34C364.28 28.33 364.25 28.33 364.21 28.33C364.11 28.34 363.99 28.36 363.89 28.37C363.82 28.4 363.7 28.41 363.65 28.41C363.54 28.31 363.43 28.29 363.3 28.29C363.09 28.29 362.86 28.36 362.59 28.27C362.7 28.61 362.22 28.16 362.32 28.5C361.83 28.45 361.7 28.21 361.11 28.22C361.15 28.43 361.15 28.63 360.73 28.59C361.42 28.93 362.13 28.99 363.04 29.4C363.34 29.37 363.26 29.14 363.67 29.17C363.82 28.95 363.45 28.65 363.66 28.64C363.76 28.64 363.89 28.61 364.02 28.59C364.08 28.58 364.15 28.58 364.21 28.56C364.39 28.63 364.6 28.67 364.73 28.78C365.77 28.45 366.05 29.07 367.14 29.12C368.2 28.31 365.75 28.49 365.39 28.03L365.4 28.02C365.55 28.08 365.59 28.03 365.76 28C365.8 27.88 365.63 27.88 365.62 27.78C365.86 27.89 366.42 27.72 366.82 27.69C366.41 26.93 368.05 27.27 367.83 26.62C367.41 26.67 367.35 26.13 366.9 25.79C367.6 25.89 368.5 26.06 369.34 26.13C369.38 26.14 370.1 26.2 370.1 26.22C370.17 26.21 370.2 26.18 370.06 26.27C370.11 26.28 370.17 26.28 370.22 26.28C370.28 26.53 370.98 26.7 371.02 26.34C370.72 26.39 370.6 26.33 370.44 26.3C371.14 26.35 371.75 26.34 372.35 26.3L372.35 1.90735e-05L-2.75424e-05 -1.34784e-05L-3.01554e-05 29.89C2.66998 29.7 4.98996 29.59 6.71997 29.58Z" fill="#F6F6F6"/>
</g>
<defs>
<clipPath id="clip0">
<rect width="372.35" height="34.03" fill="white" transform="translate(372.35 34.03) rotate(-180)"/>
</clipPath>
</defs>
</svg>
