<svg width="374" height="38" viewBox="0 0 374 38" fill="none" xmlns="http://www.w3.org/2000/svg">
<g clip-path="url(#clip0)">
<path d="M7.79463 32.6039C9.06198 32.1366 10.7835 32.3968 12.0308 31.9197C12.4825 32.2271 13.4511 31.9616 14.0106 31.8784C13.644 32.4705 12.285 32.6582 10.9844 32.5456C10.6362 32.8776 10.0173 33.0612 9.97008 33.5515C10.3917 33.8391 11.15 33.5347 11.6507 33.6619C11.6408 33.6819 11.6111 33.7221 11.5713 33.7523C11.1418 33.8548 10.522 33.8883 10.5239 34.2283C10.5241 34.2583 10.5342 34.2782 10.5344 34.2982C10.9456 34.5159 12.3557 34.5279 12.2529 34.0384C12.0327 34.0097 12.1215 33.7992 11.7121 33.9015L11.7116 33.8115L11.6516 33.8219C11.7312 33.7514 11.7809 33.6811 11.8106 33.631L11.8307 33.6608C14.602 33.885 17.2422 33.9 20.2104 33.573C20.4285 33.2418 20.9593 33.3887 21.389 33.3363C22.8777 33.0978 23.9655 32.7016 24.6513 31.9776C25.4508 31.8731 26.3727 32.2178 26.7807 31.8655C27.5517 32.0311 28.0705 31.8281 28.6297 31.6849C28.6883 31.4446 28.3882 31.4263 28.4767 31.1558C28.0868 31.178 28.0558 30.9882 27.6759 31.0204C28.1524 30.3976 29.8625 30.4179 30.2687 29.7556C30.689 29.8032 30.6579 29.6133 31.0683 29.671C31.2083 29.6802 31.1591 29.8205 31.3291 29.8195C31.1307 30.0906 30.4208 30.1147 30.4331 30.5146C30.6136 30.6136 31.0633 30.551 31.2539 30.65C30.8161 31.0425 29.7363 31.0786 29.5492 31.5897C30.6702 31.7533 32.8073 31.2511 33.9488 31.5046C34.5279 31.3513 35.418 31.3562 35.5156 30.9456C34.7057 30.9603 34.7728 30.4499 34.1523 30.3634C34.2418 30.2829 34.4618 30.2816 34.401 30.132C33.6181 29.6364 34.1024 28.6237 34.3193 28.0924C35.3898 28.1663 36.348 27.8608 37.1104 28.2665C37.5299 28.1841 37.7789 28.0027 38.039 28.0212C38.2297 28.1401 38.3306 28.3095 38.581 28.3781C39.0411 28.3955 38.9093 28.0762 39.3693 28.0736C39.0445 27.2254 38.0761 27.511 36.817 27.6682C36.5369 27.6598 36.5259 27.4798 36.5348 27.2898C36.2659 27.4913 35.9168 27.6533 35.3571 27.6965C35.2562 27.5371 35.934 27.1632 36.6743 27.209C36.6637 27.109 36.6632 27.019 36.6626 26.909C36.253 26.9814 36.1622 26.8419 35.8622 26.8436C35.8108 26.5939 35.6198 26.425 35.6879 26.0946C35.478 26.1158 35.4476 26.0259 35.2776 26.0269L35.2476 26.0371C35.2574 25.997 35.2772 25.9569 35.277 25.9269C35.2869 25.9169 35.2768 25.8969 35.2667 25.877C35.3561 25.7765 35.4051 25.5962 35.4042 25.4462L35.4038 25.3762L36.9338 25.3675C36.9645 25.4873 36.9752 25.6172 36.9961 25.7671C37.546 25.744 37.7748 25.5427 38.0438 25.3611L41.4337 25.3418C41.4639 25.3716 41.4841 25.4015 41.5143 25.4313C41.5249 25.5413 41.4351 25.5818 41.3956 25.662C41.3557 25.6822 41.3158 25.6925 41.2758 25.7027L41.2558 25.7028L41.2457 25.6829C41.136 25.7335 41.0163 25.7842 40.9858 25.6943C40.7366 25.8358 41.2382 26.1229 41.3762 25.7821C41.4262 25.7718 41.4761 25.7515 41.516 25.7413L41.5161 25.7513C41.6662 25.7705 41.6065 25.8308 41.5265 25.8313C41.7477 26.04 42.1258 25.7078 42.5964 25.8051C42.7753 25.6041 42.6642 25.4148 42.3537 25.3365L43.3037 25.3311C43.304 25.3711 43.3243 25.431 43.3746 25.4907C43.9056 25.6577 44.3843 25.4249 44.8449 25.5423C44.9073 25.962 43.9195 26.3376 44.6201 26.4536C44.611 26.6037 44.1705 26.5162 44.0911 26.6166L44.0913 26.6566C44.0012 26.6371 43.9011 26.6277 43.8111 26.6182C43.721 26.6087 43.6311 26.6293 43.6214 26.6793C43.5917 26.7295 43.6419 26.7692 43.732 26.7787C43.752 26.7886 43.782 26.7884 43.8021 26.7983C43.5132 26.9899 44.1727 26.9062 44.5127 26.9042C44.4748 27.2645 44.3552 27.3451 44.5371 27.6741C45.1766 27.5805 45.4471 27.6689 45.8457 27.4266C46.0358 27.4355 46.2259 27.4545 46.396 27.4735C46.5671 27.6625 46.9768 27.6102 47.186 27.469L47.1758 27.439C47.2659 27.4585 47.346 27.4681 47.426 27.4676C47.586 27.4667 47.666 27.4662 47.7463 27.5158C47.7863 27.5256 47.8264 27.5353 47.8664 27.5351C47.8964 27.5349 47.9363 27.5247 47.9663 27.5145C48.016 27.4742 48.0157 27.4242 47.9655 27.3845C47.795 27.2955 47.595 27.2966 47.445 27.2975C47.395 27.2978 47.345 27.2981 47.2949 27.2884C47.2447 27.2386 47.1743 27.179 47.0443 27.1698L47.0438 27.0898C47.4224 26.8476 48.5027 26.8815 48.3746 27.2222C48.7046 27.2203 48.5342 27.1513 48.5037 27.0615C49.3437 27.0667 49.3666 27.5765 50.2465 27.5515C50.6466 27.5592 50.3191 28.0111 50.7591 28.0086C50.7692 28.0185 50.7793 28.0385 50.7793 28.0485C50.7796 28.0885 50.8598 28.128 50.9498 28.1275L50.9598 28.1275C51.0498 28.1269 51.1096 28.0866 51.0992 28.0167C51.0888 27.9567 51.0285 27.8971 50.9682 27.8474L51.0582 27.8469C51.2081 27.826 51.1473 27.6864 51.3273 27.6854C51.6176 27.7437 51.3897 28.115 51.4807 28.2945C51.8007 28.2827 52.1007 28.281 52.4106 28.2692C52.4698 28.1188 52.2198 28.1303 51.9998 28.1315C52.0984 27.871 52.7198 28.1174 53.0385 27.8856C53.1585 27.8949 53.2886 27.9042 53.4086 27.9035C53.6285 27.8922 53.8484 27.871 54.0477 27.7598C54.1275 27.7194 54.1371 27.6493 54.0668 27.5897C53.9866 27.5502 53.8665 27.5409 53.7767 27.5814C53.5973 27.6824 53.4072 27.6735 53.0771 27.6554L52.9071 27.6563C52.8959 27.4464 53.1063 27.5052 52.9054 27.3563C53.5252 27.3128 53.0141 27.1257 53.4132 26.9734C53.7133 26.9917 53.9736 27.0302 54.0744 27.1797L54.0851 27.2896C54.0853 27.3396 54.1556 27.3792 54.2256 27.3788C54.3056 27.3784 54.3653 27.338 54.3651 27.288L54.3642 27.138C54.3641 27.128 54.3541 27.1181 54.344 27.1081L54.354 27.1081C54.5741 27.1168 54.5836 27.0268 54.7436 27.0258C54.692 26.7461 54.7407 26.5259 54.8496 26.3352L54.7997 26.3455C54.8293 26.2753 54.8589 26.2152 54.9486 26.1547C54.9784 26.1245 54.9681 26.0746 54.918 26.0548C54.8579 26.0252 54.768 26.0457 54.7281 26.0659C54.6385 26.1364 54.5889 26.2067 54.5493 26.2769C54.2602 26.4286 53.4006 26.5135 53.498 26.0629C53.0784 26.1253 52.9397 26.3461 52.5903 26.4581C51.8797 26.3522 51.6701 26.4334 51.2486 26.1758L51.1688 26.1962C51.1886 26.1661 51.2085 26.146 51.2283 26.1159C51.2482 26.0958 51.268 26.0657 51.2879 26.0356C52.5693 26.2782 53.3567 25.8237 53.7342 25.3816C53.6658 25.662 54.483 25.1773 54.9449 25.5047C54.8453 25.5852 54.8059 25.6755 54.8166 25.8054C55.8262 25.7397 56.2062 25.7275 56.8151 25.544C57.3055 25.6012 56.4879 26.0259 57.0873 25.9125L57.1473 25.9221C57.0876 25.9725 57.0279 26.0328 56.9782 26.0831L56.9682 26.0731C56.348 26.0567 56.1192 26.248 55.6383 26.1007C55.5717 26.7011 56.2233 26.9774 55.7073 27.6804C55.8673 27.6694 55.9474 27.699 55.9878 27.7588C56.317 27.6169 56.3251 27.2968 56.7546 27.2044C56.7755 27.3543 57.436 27.4405 57.448 27.8004C58.5272 27.6543 58.5898 28.1139 59.2704 28.21C59.3907 28.2594 59.5208 28.2786 59.6209 28.298L59.6809 28.2977C59.7009 28.2976 59.721 28.3175 59.741 28.3174C59.791 28.3171 59.8408 28.2868 59.8607 28.2567C59.8704 28.2166 59.8402 28.1768 59.77 28.1472L59.7 28.1476C59.5999 28.1282 59.4898 28.1088 59.4097 28.0792L59.4496 28.069C59.7992 28.007 59.6875 27.7076 59.9569 27.5961L59.9369 27.5862C60.1065 27.5253 60.2462 27.4645 60.3256 27.374L60.3256 27.364L60.3556 27.3738C61.255 27.2587 61.2576 27.7087 62.0972 27.6339C61.9988 27.9145 61.419 27.9578 61.6015 28.3967C63.3417 28.4268 64.8822 28.508 65.0065 27.5073C64.7554 27.3287 64.4471 27.6105 64.0862 27.4525C64.0339 27.0528 65.2154 27.3061 65.5343 27.1143C65.7844 27.1428 65.3155 27.3355 65.9451 27.2619C65.9461 27.4419 65.9571 27.6119 65.9681 27.7918C66.7393 27.9974 67.7899 28.0914 68.37 28.1181C68.3004 28.1785 68.2407 28.2388 68.2413 28.3488C68.4809 28.2775 68.5701 28.127 69.0404 28.1743C68.9313 28.3449 68.6617 28.4164 68.2517 28.4188C68.2631 28.6487 68.8722 28.5052 69.053 28.6442C69.1278 29.4738 67.3543 28.8739 67.1079 29.5053C67.18 29.8749 67.7205 29.9618 68.3308 30.0084C68.5681 29.527 69.6995 29.7705 70.0511 30.0585C70.7407 29.9746 70.698 29.5148 71.7688 29.6487L71.7988 29.6386C71.7889 29.6686 71.7691 29.7087 71.7693 29.7387C71.7497 29.7989 71.7399 29.8389 71.7001 29.8691C70.8702 29.8939 71.2722 30.2516 71.5435 30.47C71.9435 30.4678 71.9222 30.2379 71.9209 30.0179L71.8509 30.0083C71.9804 29.9275 72.0099 29.8374 72.0294 29.7573C72.0393 29.7372 72.0492 29.7171 72.0591 29.6971C72.2186 29.6062 72.5386 29.6043 72.5476 29.4243C72.6975 29.4134 72.8475 29.4126 73.0077 29.4417L73.0576 29.4414C73.1076 29.4411 73.1776 29.4307 73.1874 29.3906C73.2071 29.3505 73.1769 29.3007 73.0967 29.2812C72.8565 29.2425 72.6365 29.2438 72.3967 29.2752L72.4065 29.2451C71.9868 29.2875 71.886 29.1481 71.6057 29.1097C71.5447 28.93 71.8348 28.9484 71.7236 28.729C71.5229 28.6201 71.1628 28.6022 71.0519 28.4428C70.9426 28.5634 70.3919 28.4466 70.5333 28.6858C69.9733 28.679 69.9514 28.3491 69.7003 28.1705C69.9786 27.8689 71.24 28.1117 71.5484 27.83C71.4664 27.4804 71.9047 27.1679 71.1146 27.1624C71.3926 26.8108 71.2434 26.9517 71.9024 26.7679C71.7914 26.5986 71.3704 26.431 71.9902 26.3874L72.0103 26.3973C72.0214 26.5972 71.9727 26.8275 72.2928 26.8357C72.2837 26.9958 71.9637 26.9976 71.6437 26.9994C71.724 27.059 71.8144 27.1184 71.6546 27.1494C71.7462 27.4288 72.0869 27.5669 72.7366 27.5032C72.6378 27.7237 72.5471 27.5943 72.1971 27.5963C72.1084 27.8268 72.5678 27.7241 72.4992 27.9545C73.0984 27.8211 73.5602 28.1385 74.2086 27.8548C74.219 27.9247 74.2195 28.0047 74.2199 28.0847L74.27 28.0944L74.26 28.1045C74.1111 28.2954 73.9324 28.5264 74.0038 28.766L73.9837 28.7561C73.935 28.9764 73.9977 29.446 73.629 29.6781C73.6921 30.2178 75.1802 29.8893 75.5123 30.2474C76.0717 30.1342 76.8926 30.2995 77.5229 30.3559C77.5025 30.276 77.5422 30.2258 77.6521 30.2052C77.5187 29.6159 75.6196 29.7668 76.1353 29.0238C75.2171 29.3291 75.0636 28.7199 74.3134 28.6842C74.2925 28.5343 74.4015 28.3637 74.5207 28.213C74.8297 28.0412 74.908 27.7508 75.3977 27.688C75.858 27.7354 75.3794 27.9881 75.6907 28.2063C75.8804 28.1653 76.01 28.0845 76.0693 27.9742C76.53 28.0815 77.1202 28.1282 77.1722 28.4779C76.9232 28.6493 76.4033 28.6623 76.5253 29.0216C77.3073 29.3771 78.1448 28.9223 78.9042 28.828C79.3241 28.8056 79.3056 29.0657 79.845 28.9526C80.0138 28.7517 80.1526 28.5309 80.0707 28.2013C80.8001 28.0872 80.6924 28.5078 81.0232 28.6359C81.8721 28.4411 82.8738 28.7454 83.2712 28.2831C83.7008 28.2106 83.4726 28.5219 83.693 28.5907C84.0731 28.6185 84.4215 28.3265 84.3538 28.7269C85.2627 28.5417 86.0665 29.2071 87.2843 28.8202C87.3229 28.57 87.0425 28.5016 86.8618 28.3726C87.0306 28.1716 87.4402 28.0893 87.3683 27.7597C87.1583 27.7609 86.8586 27.8126 86.8279 27.6928C86.6399 28.0539 86.2414 28.3061 85.261 28.2517C85.789 27.8887 85.1973 27.5921 85.3559 27.3412L85.3259 27.3513C85.3855 27.281 85.4953 27.2404 85.675 27.1893C85.8448 27.1484 86.0545 27.0972 86.1437 26.9567C86.4842 27.0547 86.8228 26.8028 87.0818 26.6213C87.1416 26.581 87.3014 26.5601 87.4513 26.5392L87.4414 26.5493C87.931 26.4765 88.1621 26.6651 88.3713 26.5339C88.3831 26.8539 88.2746 27.1145 87.8652 27.2168C88.0262 27.3859 88.7053 27.2321 89.0755 27.2699C89.2856 27.2787 88.8875 27.621 89.4572 27.5678C89.4374 27.5979 89.4176 27.628 89.3778 27.6682L89.378 27.6982C89.2684 27.7688 89.1791 27.8994 89.369 27.8783C89.8589 27.8655 89.7481 27.7261 89.5077 27.6475C89.5474 27.5973 89.5771 27.5471 89.5869 27.517L89.6272 27.5668C89.8869 27.5153 90.0363 27.4045 90.2658 27.3231C90.3547 27.1226 90.005 27.1846 89.9842 27.0348C90.0032 26.8646 90.3132 26.8629 90.6432 26.861L90.6432 26.851C90.7433 26.8704 90.8035 26.9101 90.9041 27.0195C90.9544 27.0692 91.0047 27.1189 91.075 27.1685C91.2576 27.6375 92.1395 27.9625 92.8078 27.6586L92.7977 27.6387C92.8577 27.6484 92.9178 27.658 92.9578 27.6578C92.9679 27.6677 92.9679 27.6777 92.9679 27.6777C92.998 27.6976 93.0081 27.7075 93.0382 27.7273C93.0584 27.7572 93.1084 27.7669 93.1484 27.7667C93.1784 27.7665 93.1983 27.7564 93.2283 27.7463C93.2882 27.7259 93.2979 27.6859 93.2577 27.6361C93.2376 27.6262 93.2276 27.6263 93.2074 27.5964C93.1974 27.5864 93.1773 27.5665 93.1472 27.5467L93.1171 27.5269L93.087 27.5171C93.047 27.5173 92.9969 27.5076 92.9369 27.4979C93.3933 26.8653 92.0117 26.5832 91.3339 26.987C91.3038 26.9672 91.2737 26.9374 91.2435 26.9076C91.1429 26.8081 91.0222 26.6788 90.772 26.6403C90.7818 26.6102 90.7816 26.5802 90.7815 26.5502C90.7803 26.3402 90.5897 26.2513 90.4789 26.1119C90.9477 25.8992 91.7675 25.8646 92.0458 25.563C92.2366 25.7019 92.4274 25.8408 92.987 25.7676C93.1855 25.5065 93.3841 25.2553 93.6528 25.0338L95.3028 25.0244C95.3333 25.1042 95.3937 25.1839 95.4942 25.2633C96.1532 25.0895 97.1936 25.1636 97.5053 25.4518C97.7245 25.3106 97.8536 25.1598 97.9628 25.0092L99.6827 24.9994L99.6832 25.0894L99.8236 25.1586L99.7437 25.179C99.7441 25.249 99.9141 25.2381 100.014 25.2475L100.014 25.2375L100.154 25.2767C100.235 25.4162 100.605 25.3841 100.556 25.6244C101.067 25.6615 100.835 25.3328 101.205 25.3107L101.194 25.2908L101.375 25.3197C102.017 25.8161 101.07 26.3415 102.332 26.5643C102.621 26.4526 102.529 26.1331 102.979 26.0906C102.928 25.9209 102.757 25.8218 102.816 25.5715C103.787 25.706 103.896 25.4853 104.675 25.4609C104.625 25.3012 104.544 25.1216 104.303 24.973L104.753 24.9704C104.673 25.0809 104.784 25.2103 104.815 25.4501L105.345 25.4471C105.507 25.7761 105.347 25.7571 105.239 26.0577C105.509 26.0161 105.489 26.1463 105.51 26.2561C105.5 26.2662 105.49 26.2763 105.48 26.2763C105.44 26.2865 105.4 26.2968 105.38 26.3169L105.31 26.3273L105.381 26.3969C105.391 26.4268 105.421 26.4367 105.451 26.4365L105.491 26.4363C105.531 26.416 105.551 26.3959 105.531 26.366L105.571 26.3658C105.601 26.3556 105.63 26.3355 105.65 26.3253L105.661 26.3453C105.761 26.3547 105.77 26.3047 105.78 26.2646C106.1 26.3328 106.012 26.6333 106.462 26.6307C106.81 26.2687 107.981 26.472 108.334 26.89C108.834 26.8672 108.972 26.6364 109.392 26.564C108.981 26.4163 108.46 26.2093 108.688 25.908C109.058 25.8359 109.049 26.0059 109.358 25.9642C109.478 25.8135 109.617 25.6627 109.736 25.502C110.155 25.4396 110.896 25.5854 110.936 25.4852L110.936 25.4752C110.976 25.4749 111.016 25.4847 111.066 25.4844C111.448 25.8023 112.556 25.4559 112.819 25.9844C112.967 25.7236 113.369 25.9813 113.749 26.0391C113.55 26.2603 113.148 25.9425 112.689 26.0552C112.7 26.2851 112.941 26.3737 113.231 26.4221C113.222 26.5521 112.882 26.5041 112.842 26.6243C112.652 26.6654 112.473 26.6764 112.312 26.6673C112.241 26.3977 111.342 26.6329 111.49 26.232C111.291 26.3932 110.841 26.4157 110.301 26.4088C110.254 26.9391 111.794 26.8803 112.194 26.898L112.184 26.8781C112.274 26.8876 112.354 26.8871 112.454 26.8865C112.624 26.8856 112.804 26.8645 112.983 26.8235C113.005 27.1134 113.774 26.959 113.806 27.2388C114.276 27.2061 114.275 27.0361 114.735 27.1535C114.624 26.9241 114.954 26.9223 114.843 26.6929C115.023 26.8219 115.583 26.7087 115.763 26.8276C115.614 26.9585 115.495 27.0692 115.235 27.1207L115.145 27.1512L115.146 27.2112C115.146 27.2212 115.146 27.2612 115.166 27.3011C115.176 27.331 115.197 27.3709 115.197 27.4009C115.197 27.4509 115.257 27.4905 115.347 27.49C115.417 27.4796 115.487 27.4492 115.487 27.3992C115.486 27.3592 115.476 27.2993 115.456 27.2594C115.725 27.1679 115.865 27.0471 116.014 26.9162L116.054 26.886C116.664 26.8525 117.115 27.1199 117.514 26.9477C118.245 27.0835 117.55 28.0575 118.75 27.9006C118.638 27.6412 118.888 27.5798 118.997 27.4392C120.188 27.6724 120.452 26.5009 121.472 26.6351C121.463 26.6551 121.453 26.6852 121.443 26.7152C121.433 26.8053 121.424 26.8753 121.334 26.9259C121.284 26.9561 121.285 27.0061 121.345 27.0358C121.375 27.0456 121.415 27.0654 121.445 27.0652C121.475 27.0651 121.515 27.0448 121.535 27.0347C121.684 26.9439 121.714 26.8237 121.723 26.7336C121.733 26.6936 121.733 26.6536 121.752 26.6335C121.872 26.6228 121.992 26.6121 122.082 26.6116C123.182 26.6053 122.806 27.3175 123.527 27.4233C124.156 27.2798 124.444 26.9381 125.354 26.9329C125.816 27.2703 125.948 27.6495 125.681 28.0611L125.691 28.081C125.621 28.1014 125.551 28.1318 125.521 28.182C125.452 28.2524 125.442 28.3324 125.483 28.3922C125.503 28.4121 125.543 28.4319 125.593 28.4316C125.603 28.4315 125.623 28.4314 125.633 28.4213C125.693 28.411 125.722 28.3708 125.692 28.341C125.682 28.3211 125.692 28.271 125.722 28.2408L125.751 28.2107C126.441 28.1967 126.474 28.5766 127.293 28.4919C127.692 28.2796 127.69 27.8696 127.908 27.5684C127.646 27.2098 126.427 27.4268 126.165 27.0683C126.613 26.7757 128.225 27.0365 128.543 26.7947C128.923 26.8025 128.795 27.1133 129.225 27.0808C129.154 26.8312 129.604 26.8587 129.733 26.6979C130.854 26.8215 131.642 26.447 132.782 26.4905C133.022 26.5991 132.974 26.8894 133.215 27.0181C133.693 26.7753 133.973 26.7637 134.804 26.829C135.113 26.7272 135.092 26.4373 135.572 26.4346C135.852 26.553 135.954 26.7824 136.005 27.0321C136.174 26.9312 136.754 26.9179 136.935 27.0168C136.796 27.1976 136.976 27.2266 136.687 27.3983L136.707 27.4081C136.587 27.4288 136.457 27.4496 136.347 27.4502C136.237 27.4608 136.158 27.5113 136.188 27.5611C136.198 27.621 136.279 27.6606 136.369 27.6601L136.389 27.66C136.528 27.6392 136.688 27.6182 136.838 27.5974L136.848 27.5973L136.838 27.6174L137.228 27.6152C137.684 26.8926 138.923 26.6055 139.95 26.1996C140.281 26.2677 140.322 26.5075 140.373 26.7172C140.954 26.8639 141.963 26.6981 142.516 27.125C143.024 26.8421 143.755 27.0479 143.867 27.4073C144.857 27.3416 144.422 26.5341 145.562 26.5476C145.874 26.8258 146.335 27.0032 146.916 27.1299C147.216 27.1382 147.054 26.9091 147.304 26.8877C147.353 26.6474 146.963 26.6896 146.753 26.6008C146.732 26.4109 146.961 26.3596 147.01 26.2093C147.822 26.4247 148.329 26.0418 148.578 25.7304C149.189 25.9469 149.611 26.2945 150.083 26.6118C150.492 26.4295 151.342 26.5146 151.65 26.1228C151.92 26.0913 152.07 26.1304 152.061 26.2705C153.549 25.982 155.222 26.3825 156.709 25.874C157.089 26.0018 157.341 26.2204 157.522 26.4693C158.182 26.4656 158.093 26.5761 158.733 26.6724C158.662 26.4428 158.981 26.241 158.699 25.9126C158.927 25.5913 159.737 25.5867 159.865 25.216C160.256 25.4337 160.966 25.4697 161.208 25.7983C161.568 25.7762 161.487 25.5467 161.867 25.5545C161.885 25.2344 161.645 25.1958 161.843 24.9447C162.404 25.0015 162.605 25.2703 162.797 25.5392C163.696 25.4341 163.858 25.7232 164.537 25.5793C164.298 25.8207 164.579 25.8991 164.431 26.1799C164.73 26.0782 164.888 25.6773 165.23 26.0154C165.719 25.9626 165.948 25.7712 165.997 25.471C166.436 25.4585 166.488 25.6882 166.669 25.8371C167.069 25.8449 167.078 25.6548 167.468 25.6726C167.456 25.4626 167.385 25.243 167.575 25.142C167.896 25.4501 168.548 25.6564 168.29 26.1079C168.739 25.9553 168.988 25.7039 169.447 25.5513C169.295 25.2221 169.485 25.1511 169.154 24.9629C169.294 24.9521 169.424 24.9514 169.564 24.9506C169.684 24.9999 169.466 25.3912 169.857 25.4789C170.365 25.216 170.677 25.6143 171.187 25.6013C171.056 25.3621 171.607 25.489 171.706 25.3684C171.625 25.1188 171.424 24.96 171.412 24.69C171.832 24.7477 172.135 25.1059 172.202 24.6055C172.872 24.6217 172.083 24.8262 172.083 24.9062C172.084 25.0862 172.626 25.2831 172.378 25.6546C172.898 25.7116 172.847 25.4619 173.166 25.4201C172.875 25.1417 173.063 24.8606 173.814 24.9464C173.782 24.6865 173.682 24.7271 173.771 24.5366L174.051 24.535C174.142 24.5945 174.162 24.7044 174.203 24.7941C174.553 24.8121 174.582 24.662 174.661 24.5315L174.831 24.5305C175.082 24.6391 175.502 24.6267 175.771 24.5252L176.041 24.5236C176.282 24.6723 176.503 24.821 176.993 24.8182C177.236 25.4068 176.005 25.2238 175.567 25.4464C175.939 25.8342 177.246 25.3468 177.569 25.8649C178.018 25.6624 178.499 25.9596 178.898 25.7573C178.917 25.5672 178.687 25.5286 178.626 25.3789C178.266 25.3909 177.837 25.4434 177.805 25.2536C178.004 24.9524 178.764 24.9781 178.621 24.5089L180.621 24.4975C180.802 24.6665 180.853 24.8662 180.734 25.0369C181.244 25.0639 181.504 24.9625 181.793 24.8708C181.802 24.7008 181.772 24.5709 181.651 24.4916L182.691 24.4857C182.842 24.5648 182.952 24.6642 182.973 24.7741C183.302 24.6922 183.263 24.7324 183.772 24.6695C183.842 24.6191 183.882 24.5589 183.901 24.4788L184.911 24.473C185.031 24.5023 185.181 24.5215 185.321 24.5107C185.431 24.51 185.531 24.4995 185.631 24.4789L185.621 24.499C186.382 24.5646 186.881 24.4318 187.632 24.5975L187.602 24.5677C187.652 24.5674 187.702 24.5771 187.742 24.5869C187.842 24.5963 187.952 24.6057 188.072 24.625L188.082 24.6249C188.112 24.6248 188.122 24.6147 188.142 24.6146C188.152 24.6245 188.162 24.6445 188.162 24.6645L188.202 24.6742C188.123 24.7147 188.093 24.7749 188.063 24.825C188.043 24.8451 188.033 24.8652 188.013 24.8753C187.783 24.7866 187.632 24.6575 187.362 24.599C187.232 24.6598 187.464 24.9485 187.115 25.0605C186.473 24.8641 185.334 24.9406 185.807 25.4679C186.067 25.5864 185.977 25.447 186.337 25.4549C186.518 25.6439 186.278 25.6952 186.478 25.7441L186.578 25.7235C186.489 25.824 186.459 25.9242 186.48 26.0241C186.48 26.0341 186.52 26.0539 186.56 26.0536L186.57 26.0536C186.63 26.0532 186.65 26.0331 186.65 26.0031C186.63 25.9432 186.649 25.8731 186.689 25.8029C187.458 25.6985 187.967 25.4456 188.174 25.0344L188.154 25.0245C188.244 24.984 188.284 24.9238 188.323 24.8636C188.333 24.8535 188.333 24.8435 188.343 24.8334C188.524 24.9424 188.704 25.0414 188.855 25.1805C189.275 25.2081 189.194 24.9086 189.515 25.0868C189.285 25.1681 189.316 25.3679 188.856 25.3205C189.107 25.4891 189.448 25.5871 190.067 25.5336C190.067 25.4336 190.066 25.3236 190.046 25.2337C190.036 25.2338 190.026 25.2438 190.016 25.2439C189.966 25.2642 189.926 25.2844 189.886 25.3046L189.906 25.2545C189.896 25.2346 189.895 25.2046 189.895 25.1846C190.035 25.1338 190.034 25.0038 190.294 25.0223C190.295 25.0523 190.305 25.0722 190.305 25.1022L190.325 25.1021C190.365 25.0919 190.405 25.0717 190.445 25.0514L190.445 25.0714C190.554 25.0408 190.684 25.0001 190.704 24.91C191.285 25.0567 191.448 25.6857 192.197 25.4915C191.766 25.2539 192.124 25.0319 192.152 24.6617C192.793 24.738 192.486 25.3098 192.338 25.5707C192.449 25.79 192.969 25.7971 193.15 25.996C192.942 26.2772 192.939 25.8272 192.62 25.9391C192.941 26.1072 192.741 26.1384 192.773 26.4582C193.153 26.516 193.483 26.6041 193.834 26.6621C193.951 26.2615 194.29 25.9295 193.668 25.6831C194.007 25.4811 194.637 25.4175 194.705 25.0571C194.524 24.8882 194.113 24.8505 194.142 24.5503C194.171 24.4602 194.381 24.489 194.391 24.4089L194.601 24.4077C194.951 24.4557 194.983 24.7055 194.954 24.9857C195.344 24.9435 195.336 25.2335 195.506 25.2726C195.646 25.3118 195.605 25.122 195.635 25.1218C196.185 25.1387 195.887 25.4304 196.318 25.6379L196.378 25.6276C196.268 25.7082 196.199 25.7886 196.159 25.8789C196.01 25.9397 195.83 25.9607 195.54 25.9524C195.51 26.0726 195.66 26.0817 195.681 26.1816C195.192 26.2644 195.29 25.9938 194.87 26.0362C194.731 26.197 194.463 26.4685 194.774 26.6468C195.552 26.3523 195.685 26.8516 196.385 26.8476C196.573 26.5865 197.09 26.0735 196.33 25.9379L196.29 25.9381C196.319 25.8479 196.379 25.7676 196.478 25.687L196.468 25.7071C196.858 25.6949 197.029 25.8239 197.14 25.9933C197.279 25.8125 197.688 25.6301 197.247 25.5326C197.747 25.5498 198.008 25.6983 198.329 25.8165C198.411 26.236 197.832 26.2793 197.844 26.6593C198.203 26.5872 198.184 26.7573 198.494 26.7255C198.573 26.4751 198.783 26.5739 198.893 26.4933L198.893 26.4833C198.953 26.4929 199.013 26.5026 199.073 26.5222L199.183 26.5516L199.163 26.5617C199.495 26.8298 199.637 27.199 200.257 27.2955C200.307 27.1352 200.624 26.7634 200.775 26.9025C201.065 26.8209 200.384 26.6848 200.483 26.4642C200.591 26.2436 200.913 26.5017 201.153 26.4504C200.944 26.7316 201.243 26.5599 201.305 26.8195C201.794 26.6067 202.315 26.8937 202.517 27.2526C202.955 26.8601 203.413 26.5175 203.271 26.1183C203.129 25.7391 202.147 25.4647 202.414 24.9931C203.174 24.9888 203.287 25.3882 203.778 25.5654C204.457 25.5015 204.557 25.5109 205.357 25.4664C205.607 25.4749 205.668 25.5946 205.639 25.7648C206.219 25.7814 205.946 25.333 206.687 25.4388C206.796 25.1881 206.466 25.21 206.405 25.0704C206.774 24.9983 206.755 25.1684 207.075 25.1265L207.175 25.106C207.125 25.1663 207.096 25.2264 207.076 25.2865C206.496 25.3299 207.128 25.5663 206.829 25.738C206.138 25.6419 206.684 26.7088 205.403 26.5261C205.364 26.6463 205.524 26.6554 205.684 26.6745C206.405 26.8704 206.468 27.38 207.049 27.4667C206.653 26.539 208.165 26.8704 208.604 26.6079C208.904 26.6961 208.975 26.8957 209.286 26.974L209.297 27.2339C209.297 27.2439 209.297 27.2639 209.308 27.2738C209.148 27.3248 209.078 27.3852 209.078 27.4452C209.079 27.6252 209.731 27.8014 210.12 27.7892C210.23 27.7286 210.189 27.5888 210.369 27.5478C210.288 27.3683 209.798 27.401 209.707 27.2016L209.686 26.9317C209.685 26.9217 209.675 26.9017 209.675 26.8917L209.685 26.8917C210.085 26.7694 209.991 26.1799 209.641 26.0619C209.541 26.1325 209.291 26.1139 209.252 26.2241C208.991 26.1556 208.88 25.8963 209.089 25.7651L209.059 25.7452L209.159 25.7147L209.188 25.6845C209.208 25.6244 209.228 25.5743 209.257 25.5141C209.277 25.464 209.297 25.4139 209.317 25.3638L209.347 25.3836C209.587 25.3722 209.627 25.482 209.877 25.4506C209.776 25.2311 209.776 25.3011 209.865 25.0806C210.526 25.2269 210.529 25.7569 210.851 26.105C211.351 26.0922 211.349 25.7922 211.759 25.7098C212.309 25.8467 212.651 26.1147 213.252 26.2113C213.37 25.8706 213.311 26.081 213.63 25.9092C213.787 25.4983 213.098 25.5922 213.186 25.2317C213.725 25.1186 214.238 25.6557 215.067 25.4209C215.086 25.2808 214.896 25.2719 214.915 25.1218C215.355 25.1193 215.677 25.3575 215.855 25.1064C216.286 25.204 216.07 25.8952 216.302 26.3039C216.803 26.4211 216.805 26.8111 217.166 26.989C217.167 27.079 217.217 27.1587 217.257 27.2285C217.308 27.3182 217.338 27.378 217.329 27.4381C217.319 27.4981 217.379 27.5378 217.469 27.5473C217.479 27.5472 217.479 27.5472 217.499 27.5471C217.569 27.5467 217.639 27.5063 217.649 27.4562C217.668 27.3561 217.608 27.2565 217.557 27.1668C217.507 27.0871 217.466 27.0173 217.496 26.9371C217.496 26.9271 217.496 26.9071 217.485 26.8972L217.535 26.8769C218.025 26.8141 218.166 26.9633 218.596 26.9408C218.545 26.7911 218.604 26.7108 218.854 26.7094C218.462 26.2316 217.57 25.9467 217.597 25.4465C217.267 25.4384 217.198 25.5688 216.938 25.6103C216.938 25.5103 216.927 25.4103 216.926 25.3103C217.457 25.3673 217.908 25.5447 218.116 25.2035C218.676 25.2604 218.898 25.5191 219.209 25.7273C219.19 25.9774 218.891 26.0791 218.983 26.3986C219.915 26.7933 220.945 26.7374 221.677 27.1833C221.957 27.1017 222.305 26.8597 222.055 26.7111L222.174 26.7104L222.185 26.7204C222.165 26.7805 222.245 26.78 222.315 26.7796C222.345 26.7894 222.385 26.7992 222.425 26.819C222.445 26.7689 222.375 26.7593 222.305 26.7497L222.285 26.7498C222.344 26.5794 222.785 26.7469 222.835 26.8166L222.845 26.8166C222.845 26.8366 222.835 26.8566 222.836 26.8866C222.746 26.8972 222.656 26.8977 222.566 26.8982C222.545 26.8783 222.515 26.8685 222.485 26.8586L222.465 26.8588C221.797 27.0626 223.168 27.2848 223.289 27.5241C223.829 27.411 223.735 26.8815 223.265 26.7742C223.744 26.6715 224.184 26.5689 224.764 26.5656C224.914 26.5648 225.064 26.5639 225.234 26.583C225.692 26.2103 224.941 26.0146 224.68 25.8361C224.638 25.6463 225.297 25.4226 224.517 25.467C224.716 25.2259 224.644 24.8463 225.153 24.7634C225.595 24.9609 226.255 25.0371 226.766 25.1942C226.677 25.3447 226.366 25.2565 226.647 25.4249C226.238 25.4872 225.756 25.1899 225.966 25.1388C225.614 24.9308 225.347 25.3923 225.469 25.6816C226.28 25.857 226.331 26.0067 227.341 26.0109C227.352 26.2709 226.742 26.1843 226.562 26.3354C226.613 26.5151 226.664 26.6848 227.104 26.6223C227.105 26.7223 227.105 26.8223 227.126 26.9222C227.076 27.0324 226.786 27.0041 226.586 27.0052C226.678 27.2447 226.998 27.3329 227.149 27.532C227.527 27.1099 228.848 27.3323 229.539 27.4084C229.507 27.2086 229.748 27.2472 229.517 27.0985C230.087 27.1953 230.728 27.2616 231.787 27.0556C231.696 26.8961 231.494 26.6172 231.753 26.4657C232.364 26.6723 231.595 26.7567 231.907 27.1349C232.558 27.3412 233.13 27.5979 233.422 28.0162C233.562 27.9255 234.041 27.9027 234.272 27.9714C234.292 27.9813 234.312 28.0012 234.332 28.0111C234.023 28.2028 234.513 28.23 234.505 28.4501C234.725 28.4388 234.945 28.4376 235.165 28.4363C235.303 28.1055 235.133 28.1265 235.011 27.8372C234.901 27.8478 234.872 27.918 234.742 27.9187L234.722 27.9288C234.671 27.8891 234.621 27.8494 234.551 27.8098C234.531 27.7899 234.501 27.7801 234.471 27.7803L234.481 27.7702C234.46 27.7203 234.46 27.6703 234.46 27.6203C234.629 27.4394 235.741 27.793 235.918 27.372C236.16 27.5806 236.112 27.9709 236.483 28.1188C236.883 28.1565 236.962 28.016 237.262 28.0143C237.372 28.0337 237.472 28.0531 237.573 28.0826L237.543 28.0927C237.523 28.1628 237.603 28.1624 237.673 28.162C237.624 28.2823 237.513 28.1429 237.283 28.1742C237.284 28.2942 237.294 28.4142 237.295 28.5542C236.975 28.556 236.905 28.4364 236.495 28.4887C236.345 28.5896 236.446 28.609 236.516 28.7086L236.526 28.7185C236.347 28.7796 236.177 28.8205 236.037 28.9313L236.008 28.9515L235.998 29.0516C235.998 29.1216 236.069 29.1712 236.189 29.1805L236.199 29.1804C236.299 29.1799 236.389 29.1293 236.388 29.0593L236.398 29.0393C236.468 28.9989 236.548 28.9684 236.667 28.9377C237.708 28.9918 237.751 29.6216 238.692 29.7362C239.001 29.5644 239.561 29.5212 240.141 29.4779C240.141 29.5279 240.141 29.5679 240.151 29.6079L240.131 29.638C239.962 29.739 239.953 29.929 239.754 30.0202C239.715 30.3004 240.376 30.3966 240.695 30.2148C240.753 29.9744 240.453 29.9662 240.542 29.6956C240.662 29.665 240.772 29.6443 240.882 29.6437C241.442 29.6405 241.804 30.0785 242.046 30.3471C242.466 30.4147 242.445 30.2248 242.685 30.1934C243.045 30.2914 242.877 30.5523 243.388 30.6994C244.595 30.1625 246.098 30.694 247.519 30.9959C247.642 31.4052 247.343 31.5969 247.154 31.8379C246.834 31.8798 246.393 31.5823 246.752 31.4702C246.632 31.4409 246.202 31.3834 245.942 31.4749C245.922 31.405 245.971 31.3447 246.071 31.3341C246.01 31.1645 245.411 31.3179 245.141 31.2694C244.922 31.5507 244.772 31.5015 244.774 31.8015C245.264 31.8287 245.557 32.2671 245.975 32.0747C246.168 32.4536 245.587 32.4069 245.609 32.6968C246.099 32.674 245.989 32.6046 246.389 32.6823C246.409 32.7522 246.4 32.8523 246.3 32.9128C246.3 32.9128 246.3 32.9128 246.29 32.9129C246.16 32.8936 246.04 32.8843 245.93 32.885C245.18 32.8892 244.863 33.381 243.913 33.4065C243.453 33.3491 243.68 32.8678 242.961 32.9719C243.203 33.4005 242.393 33.4851 242.466 33.9647C242.166 33.9664 241.846 33.9783 241.546 33.99C241.567 34.1199 241.397 34.1408 241.418 34.2907C242.11 34.5768 243.011 34.7316 243.959 34.4662C244.349 34.524 244.241 34.8646 244.771 34.8216C245.27 34.6387 245.189 34.3992 245.277 34.1387C245.777 34.1458 246.158 34.2237 246.09 34.5741C246.64 34.6409 246.862 34.8897 247.183 35.0778C246.954 35.2991 246.214 35.2434 245.875 35.4153C246.267 35.8631 247.266 35.6474 248.266 35.5917C248.334 35.2413 247.913 35.1937 247.453 35.1463C247.983 35.1233 248.111 34.8225 247.82 34.5442C248.187 34.0521 249.429 34.365 250.198 34.1906C249.905 33.7823 250.554 33.5986 251.224 33.4948C251.213 33.3148 251.452 33.2634 251.341 33.0441C251.972 33.2205 252.351 33.0883 253.202 33.1635C253.44 32.8521 253.918 32.4794 254.509 32.606C254.606 32.1154 255.175 31.8822 255.663 31.5894C256.685 32.0436 258.966 32.1706 260.053 31.5943C261.223 31.6277 261.97 31.0834 262.872 31.3483C262.902 31.3781 262.932 31.4279 262.942 31.4778C262.963 31.5377 263.003 31.6175 263.084 31.677C263.104 31.6869 263.144 31.7067 263.184 31.7065C263.214 31.7063 263.224 31.6962 263.244 31.6861C263.303 31.6758 263.313 31.6257 263.273 31.606C263.223 31.5463 263.203 31.5064 263.172 31.4465C263.152 31.3967 263.122 31.3468 263.091 31.297L263.631 31.2939C263.58 31.1142 263.45 30.9749 263.349 30.8355C263.947 30.5321 264.333 29.8099 265.394 29.9738L265.554 30.0529C265.574 30.0628 265.604 30.0726 265.644 30.0624C265.664 30.0623 265.684 30.0622 265.714 30.052C265.764 30.0317 265.764 29.9717 265.714 29.952L265.483 29.8333L265.553 29.8229C266.281 29.4688 265.998 28.9104 266.696 28.5864C267.035 28.4344 267.615 28.4911 267.474 28.2019C268.774 28.2445 268.3 27.6172 268.488 27.1961C268.828 27.1542 269.249 27.4518 269.428 27.2408C269.699 27.4092 269.99 27.5276 269.982 27.8476C270.442 27.845 270.623 28.014 270.844 28.1527C270.874 28.1925 270.884 28.2325 270.864 28.2826C270.594 28.2541 270.494 28.1547 270.274 28.286C270.126 28.6068 270.566 28.5843 270.557 28.8144C270.036 28.5573 268.858 29.014 267.779 29.0902C267.93 29.2594 268.021 29.4688 268.192 29.6179C269.152 29.6024 269.512 29.7103 270.214 29.9463C270.804 29.903 271.712 29.6378 272.052 29.6958C272.03 29.246 271.088 28.9113 271.075 28.3514L270.985 28.3719C271.064 28.2815 271.044 28.2016 271.013 28.1317L271.063 28.1315C271.842 27.927 272.833 28.0814 273.205 28.3792L273.205 28.4092C273.205 28.4492 273.215 28.4892 273.236 28.5391L273.206 28.5292C273.056 28.5501 273.126 28.6097 273.206 28.6092C273.087 28.7399 272.647 28.7024 272.427 28.7737C272.49 29.2333 272.269 29.0846 272.181 29.4651C272.371 29.454 272.561 29.4429 272.591 29.5328C272.871 29.4612 273.04 29.3402 272.969 29.0706C273.129 29.1497 273.229 29.1291 273.218 28.9892C274.429 29.0723 275.191 29.4079 275.534 30.006C276.325 30.1315 277.273 29.816 277.546 30.3445C276.687 30.5594 276.445 30.1908 275.405 30.2267C275.236 30.3277 275.297 30.5673 275.298 30.7573C274.349 30.8527 273.967 30.5849 273.297 30.4987C273.028 30.6503 272.939 30.9008 272.249 30.8247C272.311 31.2144 272.932 31.3808 273.742 31.3962C274.072 31.4143 273.931 31.2151 274.391 31.1625C274.77 31.1103 275.482 31.3263 276.272 31.3518C276.892 31.3682 277.481 31.2649 277.981 31.252C278.631 31.2183 278.882 31.3169 279.32 31.0644C279.136 30.3654 277.322 29.6858 278.82 29.2672C278.689 29.008 277.83 29.2029 277.748 28.9133C277.985 28.322 279.802 27.8816 280.515 28.3975C280.546 28.5873 280.326 28.6386 280.127 28.7097C280.73 29.3063 281.56 29.3316 281.666 30.271C281.517 30.5318 280.626 30.3969 280.488 30.6677C280.771 31.1561 281.799 30.8102 282.217 30.5678C283.399 30.8211 284.939 30.8923 285.712 31.3979C286.232 31.3249 285.991 31.1463 286.36 31.0042C286.6 30.9228 287.1 31.03 287.42 30.9882C288.069 30.8745 288.787 30.5104 289.657 30.4954C289.907 30.484 290.108 30.6028 290.458 30.6308C291.498 30.7049 292.776 30.3576 293.637 30.4127C294.117 30.4499 294.738 30.5364 295.507 30.382C295.558 30.5617 296.087 30.4387 296.058 30.6789C296.894 29.9441 299.274 29.9605 300.815 30.1317C301.744 29.8864 303.673 29.6954 304.406 30.2812C304.646 30.3298 305.196 30.1867 305.207 30.3467C305.457 30.3352 305.035 30.1076 305.194 29.8967C305.412 29.4755 306.562 29.5589 307.183 29.7054C307.452 29.4938 308.142 29.4899 308.491 29.3079C308.721 29.3566 308.921 29.3254 309.161 29.3741C309.311 29.3932 309.192 29.4839 309.302 29.5233C309.572 29.6117 310.082 29.5388 310.232 29.578C310.443 29.6268 310.363 29.7472 310.504 29.7964C310.664 29.8555 311.343 29.6416 311.184 29.9425C311.813 29.6489 312.16 29.207 313.481 29.2894C313.491 29.3194 313.501 29.3493 313.501 29.3693C312.982 29.4323 312.822 29.4732 312.352 29.4559C312.683 29.724 313.254 29.8607 313.715 30.0381C313.864 29.8972 314.224 29.8652 314.353 29.7244C314.252 29.565 313.892 29.5371 313.682 29.4383L313.632 29.4386C313.691 29.3782 313.671 29.2983 313.58 29.1989L313.67 29.2083C313.969 28.9466 314.16 29.1355 314.61 29.193C315.741 29.3565 317.15 29.2285 317.92 29.1241C317.638 28.8657 318.058 28.8333 318.297 28.6619C318.951 29.3282 320.389 28.98 321.357 28.6745C321.838 28.7617 322.209 28.9296 322.838 28.726C323.69 29.1912 324.938 28.734 326.158 28.7471C326.825 28.2633 328.457 28.6639 329.478 28.8281C331.146 28.3486 332.865 28.2488 334.517 28.5794C335.364 27.9845 336.998 28.7252 337.975 28.2896C338.929 28.8942 340.705 28.194 341.579 28.8391L341.589 28.829L341.559 28.9392C341.579 28.9691 341.589 28.989 341.6 29.019C341.28 29.0208 341.321 29.2206 341.031 29.2422C341.033 29.5422 341.894 29.7073 341.465 29.9997C342.407 30.3044 343.858 30.4161 344.665 30.0015C344.414 29.8029 344.203 29.5641 343.712 29.4969C343.722 29.4069 343.952 29.4355 344.102 29.4147C344.161 29.3043 343.581 29.2377 343.961 29.1955C343.67 29.1371 342.63 29.0731 341.83 29.0876L341.73 29.1082C341.78 29.0279 341.739 28.9582 341.719 28.9083L341.689 28.8884C341.689 28.8784 341.679 28.8785 341.669 28.8686L341.689 28.8584C342.779 28.9722 343.239 28.9196 344.08 29.0448C344.478 28.6425 344.326 28.3834 344.704 28.0412C344.384 27.9531 344.143 27.8044 344.141 27.5244C343.782 27.7065 343.231 27.5396 343.2 27.2698C343.24 27.2596 343.28 27.2593 343.32 27.2491C343.37 27.2488 343.419 27.2385 343.469 27.2383C343.51 27.388 343.96 27.3055 344.021 27.4551C344.33 27.4033 344.289 27.1636 344.388 26.993C343.957 26.7855 343.94 27.2456 343.858 26.926C343.638 26.9073 343.608 26.9875 343.589 27.0876L343.619 27.1274C343.499 27.1181 343.379 27.1188 343.279 27.1393C343.229 27.1396 343.189 27.1499 343.139 27.1501C342.838 27.0319 342.767 26.7923 342.387 26.7344C342.475 26.4439 342.837 26.7219 343.046 26.5607C342.985 26.421 342.655 26.4429 342.754 26.1923C341.773 26.1379 341.181 25.8413 340.729 25.4739C340.749 25.3938 340.979 25.4224 340.978 25.3124C341.508 25.2894 341.789 25.3978 342.06 25.5263C342.199 25.4555 342.049 25.3563 342.308 25.2249C342.166 24.8757 341.475 24.6396 341.913 24.2871C341.663 24.3685 341.621 24.0388 341.451 23.9497C341.48 23.8596 341.71 23.8882 341.71 23.7882C342.422 24.2142 343.301 24.0692 344.263 24.2737C343.895 24.6158 344.704 24.4512 344.556 24.872C343.886 24.9158 343.854 24.556 343.474 24.4382C343.054 24.4806 343.226 24.8496 342.555 24.7634C342.816 24.9619 342.868 25.2917 343.379 25.3487C343.41 25.5186 342.909 25.3914 342.719 25.4425C342.78 25.6622 343.31 25.5991 343.411 25.7986C343.271 25.7994 343.131 25.8102 343.001 25.8109C342.841 25.7618 342.661 25.7328 342.491 25.7238C342.331 25.6947 342.191 25.6855 342.06 25.6563C342 25.6266 341.92 25.6371 341.881 25.6773C341.861 25.7174 341.881 25.7573 341.931 25.777C342.101 25.816 342.272 25.8451 342.442 25.8541C342.622 25.8731 342.792 25.8921 342.932 25.9513L342.872 25.9616C342.963 26.0311 343.043 26.0907 342.873 26.1116C343.773 26.0465 344.692 26.0013 344.895 26.5201C344.985 26.4896 345.095 26.449 345.255 26.4381C345.265 26.448 345.275 26.4479 345.285 26.4479C345.415 26.4771 345.555 26.5063 345.695 26.5055L345.695 26.5155C345.786 26.565 345.986 26.5639 346.066 26.6134C346.056 26.6735 346.027 26.7237 346.007 26.7438L345.967 26.734C345.887 26.8145 345.677 26.8157 345.708 26.9655C345.878 26.9745 345.839 27.1047 345.869 27.1946C346.348 27.0418 346.271 27.4123 346.931 27.4685C346.963 27.8283 347.174 28.0771 347.595 28.1947C347.585 28.1948 347.585 28.2048 347.585 28.2048C347.465 28.2755 347.356 28.3261 347.236 28.3668C346.815 28.2192 346.816 28.3992 347.246 28.4467L347.206 28.427C347.356 28.3861 347.496 28.3153 347.645 28.2444C347.655 28.2344 347.675 28.2243 347.685 28.2242C348.216 28.3012 348.585 28.2191 349.145 28.1959C349.376 28.4046 349.697 28.5427 349.998 28.651C349.988 28.7311 350.049 28.8207 350.139 28.9102L350.069 28.9206C350.12 29.1003 350.54 29.0579 350.471 29.2983C351.091 29.2548 352.131 29.1489 351.778 28.6609C351.458 28.7527 350.697 28.467 350.268 28.7295C350.248 28.6896 350.248 28.6496 350.258 28.6395L350.277 28.5894L350.207 28.5598C349.856 28.4418 349.496 28.2939 349.284 28.0451L349.364 28.0246C349.594 28.0633 349.914 28.0615 350.025 28.1709C350.361 27.4089 347.92 27.2829 347.06 27.2478C347.059 27.1778 347.059 27.1078 347.048 27.0478L347.138 26.9873C347.188 26.967 347.188 26.917 347.138 26.8973C347.077 26.8577 347.007 26.8681 346.958 26.8983L346.798 26.9893L346.778 26.9494C346.976 26.6482 346.208 26.9326 346.237 26.7425L346.227 26.7425C346.237 26.7125 346.256 26.6723 346.266 26.6323C346.266 26.6123 346.246 26.5924 346.226 26.5825L346.226 26.5725C346.586 26.5705 346.996 26.5981 347.155 26.4872C347.756 26.6238 348.058 26.9221 348.778 26.988C348.277 26.7208 349.185 26.5156 349.133 26.0659C348.642 25.9687 348.932 25.8371 348.322 25.8605C348.651 25.7187 348.411 25.73 348.58 25.5491C349.451 25.8041 350.329 25.4491 350.841 25.7262C350.782 25.9065 350.631 25.6474 350.451 25.8084C350.343 26.069 350.944 26.2856 350.615 26.4175C350.626 26.6274 350.964 26.2255 350.896 26.5659C351.124 26.2646 352.095 26.459 352.356 26.6175C352.805 26.395 352.965 26.4741 353.416 26.5915L353.496 26.581C353.367 26.7218 353.288 26.8722 353.278 27.0323L353.038 27.0336C353.048 26.9636 352.988 26.9239 352.898 26.9045C352.488 26.9268 352.118 26.9589 351.879 27.0703C351.819 27.0706 351.759 27.061 351.668 27.0415C351.548 27.0122 351.408 26.993 351.268 27.0038C351.158 26.9844 351.187 26.8642 351.157 26.7844C350.687 26.7871 350.438 26.9285 349.967 26.7312C349.727 26.7925 349.947 26.8713 349.978 26.9611C349.958 26.9612 349.928 26.9614 349.908 26.9515C349.788 26.9522 349.638 26.9331 349.508 26.9938C349.458 27.0241 349.459 27.0641 349.499 27.0938C349.519 27.1037 349.549 27.1036 349.589 27.1033C349.609 27.1032 349.629 27.1031 349.649 27.093C349.699 27.0627 349.749 27.0624 349.869 27.0817C349.939 27.0913 350.029 27.0908 350.119 27.0803L350.109 27.1104C350.46 27.2384 350.82 27.3663 351.32 27.3935C351.31 27.3135 351.31 27.2435 351.309 27.1635C351.389 27.1531 351.469 27.1726 351.559 27.1821C351.649 27.2016 351.75 27.221 351.87 27.2203C351.91 27.2201 351.949 27.2099 351.999 27.2096L351.99 27.2296C352.241 27.3982 352.81 27.375 352.91 27.2844L352.91 27.2744C353 27.2739 353.08 27.2834 353.15 27.283C353.2 27.2727 353.25 27.2724 353.3 27.2622L353.32 27.282L353.3 27.2822C353.662 27.5801 354.31 27.2764 355.041 27.3922C355.071 27.5321 354.891 27.5531 354.932 27.7029C354.112 27.6175 353.373 27.8118 352.792 27.7351C352.723 27.8955 352.625 28.226 352.816 28.3949C352.816 28.3249 353.677 28.45 352.967 28.4841C353.618 28.7604 353.855 28.179 354.555 28.235C354.797 28.4536 355.217 28.5612 355.638 28.6688C355.937 28.5671 356.237 28.4454 356.827 28.4821C356.977 28.5012 356.907 28.5616 356.827 28.5721C357.378 28.6889 358.447 28.5928 358.721 29.2113C359.25 29.0982 359.063 29.4793 359.381 29.2775C359.432 29.4672 358.882 29.3403 359.003 29.5897C358.623 29.5818 358.432 29.3129 358.083 29.5249C358.214 29.7442 358.687 30.2015 357.967 30.2756C358.4 30.7931 359.422 31.1173 360.26 30.7725C359.959 30.5342 360.188 30.4429 359.977 30.2441C360.656 30.0202 360.344 29.732 361.002 29.3982C360.532 29.3209 360.551 29.2208 359.91 29.1145C359.789 28.7852 359.859 28.7748 359.747 28.5154C359.926 28.3444 360.906 28.3488 360.535 28.1209C361.215 28.177 361.986 28.3826 362.384 28.0103C363.605 28.1034 364.179 28.9301 365.608 28.622C365.749 28.7711 366.109 28.7891 366.279 28.9181C366.25 28.9383 366.22 28.9685 366.18 28.9987L366.16 28.9888C365.889 28.8603 365.83 28.9907 365.5 29.0026C365.551 29.1623 365.411 29.2031 365.372 29.3133L365.372 29.3233C365.342 29.3135 365.312 29.3137 365.272 29.3139C365.172 29.3244 365.052 29.3451 364.952 29.3557C364.882 29.3861 364.762 29.3968 364.712 29.3971C364.602 29.2977 364.491 29.2783 364.361 29.2791C364.151 29.2803 363.922 29.3516 363.651 29.2631C363.763 29.6025 363.281 29.1552 363.383 29.4947C362.892 29.4475 362.761 29.2082 362.171 29.2216C362.212 29.4313 362.213 29.6313 361.793 29.5937C362.485 29.9298 363.195 29.9857 364.108 30.3905C364.408 30.3588 364.326 30.1293 364.736 30.1569C364.885 29.9361 364.514 29.6382 364.723 29.627C364.823 29.6264 364.953 29.5957 365.083 29.575C365.143 29.5646 365.213 29.5642 365.273 29.5439C365.453 29.6128 365.664 29.6516 365.794 29.7609C366.832 29.425 367.116 30.0434 368.206 30.0871C369.262 29.2711 366.813 29.4651 366.45 29.0072L366.46 28.9971C366.61 29.0562 366.65 29.006 366.82 28.975C366.859 28.8548 366.689 28.8558 366.679 28.7558C366.919 28.8645 367.478 28.6913 367.878 28.659C367.464 27.9013 369.106 28.232 368.882 27.5832C368.462 27.6356 368.399 27.096 367.947 26.7586C368.648 26.8546 369.549 27.0194 370.389 27.0846C370.429 27.0944 371.149 27.1503 371.15 27.1703C371.219 27.1599 371.249 27.1297 371.11 27.2205C371.16 27.2302 371.22 27.2299 371.27 27.2296C371.331 27.4793 372.032 27.6453 372.07 27.2851C371.771 27.3368 371.65 27.2774 371.49 27.2484C372.19 27.2944 372.8 27.2809 373.4 27.2375L373.25 0.93789L0.90594 3.06268L1.07651 32.9522C3.74538 32.747 6.06471 32.6237 7.79463 32.6039Z" fill="#F6F6F6"/>
</g>
<defs>
<clipPath id="clip0">
<rect width="372.35" height="34.03" fill="white" transform="translate(373.444 34.9673) rotate(179.673)"/>
</clipPath>
</defs>
</svg>
